<?xml version="1.0" encoding="utf-8"?>
<!-- Generator: Adobe Illustrator 27.5.0, SVG Export Plug-In . SVG Version: 6.00 Build 0)  -->
<svg version="1.1" id="Capa_1" xmlns="http://www.w3.org/2000/svg" xmlns:xlink="http://www.w3.org/1999/xlink" x="0px" y="0px"
	 viewBox="0 0 2550 1766" style="enable-background:new 0 0 2550 1766;" xml:space="preserve">
<rect y="0.002" style="fill:#FFFFFF;" width="2549.51" height="1765.049"/>
<ellipse style="fill:#E7CFC7;" cx="433.349" cy="1494.43" rx="249.187" ry="48.352"/>
<path style="fill:#E7CFC7;" d="M1213.221,1494.43c0,26.705-111.564,48.352-249.189,48.352c-137.621,0-249.186-21.646-249.186-48.352
	s111.564-48.352,249.186-48.352C1101.656,1446.078,1213.221,1467.725,1213.221,1494.43z"/>
<path style="fill:#E7CFC7;" d="M1768.943,1494.43c0,26.705-111.564,48.352-249.189,48.352c-137.621,0-249.186-21.646-249.186-48.352
	s111.564-48.352,249.186-48.352C1657.379,1446.078,1768.943,1467.725,1768.943,1494.43z"/>
<path style="fill:#E7CFC7;" d="M2312.146,1494.43c0,26.705-111.564,48.352-249.189,48.352c-137.619,0-249.186-21.646-249.186-48.352
	s111.566-48.352,249.186-48.352C2200.582,1446.078,2312.146,1467.725,2312.146,1494.43z"/>
<g>
	<g>
		<path style="fill:#E59375;" d="M597.736,892.625l17.908,13.631l16.066,17.82c-6.029,5.361-14.469-4.69-14.469-4.69
			c6.689,16.725,17.176,30.859,17.176,30.859c2.871,5.922-3.045,6.256-3.045,6.256c-7.455-5.83-18.521-24.504-18.521-24.504
			c4.746,11.371,15.311,29.102,15.311,29.102c1.482,5.287-4.137,4.486-4.137,4.486c-12.02-5.066-18.979-28.602-18.979-28.602
			c2.352,8.965,12.07,26.717,12.07,26.717c-0.787,3.883-2.76,2.859-2.76,2.859c-10.148-2.555-16.775-25.227-16.775-25.227
			l2.709,8.422c4.723,11.203-2.898,9.182-2.898,9.182l-3.385-5.473c-10.041-16.869-9.928-33.287-9.928-33.287l-2.787-20.935
			L597.736,892.625z"/>
		<path style="fill:#E59375;" d="M528.701,565.453l-10.893,5.688c0,0,9.723,159.289,30.473,188.408
			c20.748,29.121,31.174-8.152,36.355-12.713c5.186-4.557,13.016-183.352,13.016-183.352L528.701,565.453z"/>
		<path style="fill:#E59375;" d="M588.406,725.082c0,0,3.695,136.984,9.33,167.543c0,0-6.41,15.826-16.443,6.617
			c-10.047-9.201-46.447-157.826-43.012-170.449C541.713,716.174,588.406,725.082,588.406,725.082z"/>
		<path style="fill:#95D7E3;" d="M604.92,696.955c-31.1,23.072-82.728,12.281-82.728,12.281l-13.787-142.9
			c0,0-4.412-28.232,31.734-39.842c0,0,41.336-12.51,59.045,29.887L604.92,696.955z"/>
	</g>
	<g>
		<rect x="496.348" y="827.297" style="fill:#FAA835;" width="209.188" height="135.287"/>
		<rect x="499.76" y="830.303" style="fill:#FFFFFF;" width="202.521" height="127.926"/>
		<rect x="489.777" y="833.981" style="fill:#FDBB35;" width="209.188" height="128.603"/>
		<rect x="633.91" y="822.67" style="fill:#FDBB35;" width="65.055" height="11.311"/>
	</g>
	<path style="fill:#000001;" d="M515.734,1438.334c0,0,6.584,24.766,14.479,31.428c7.885,6.662,37.871,16.311,37.871,16.311
		l16.586,2.24c0,0,11.58,8.154-19.941,17.105c-31.522,8.953-87.201-16.779-87.201-16.779l12.066-50.838L515.734,1438.334z"/>
	<path style="fill:#000001;" d="M408.646,1492.049c-5.834-8.521-18.936-55.516-18.936-55.516l-25.818-0.01l-14.598,52.6
		c0,0-2.328,8.807,3.037,11.922c0,0,32.512,10.207,59.652-2.318C411.984,1498.727,411.625,1496.402,408.646,1492.049z"/>
	<path style="fill:#F7A483;" d="M559.691,775.875l32.973-201.481c0,0,11.357-30.285-11.359-45.428l-86.59-40.693h-61.057
		l-104.096,61.518l68.227,226.084H559.691z"/>
	<path style="fill:#002044;" d="M397.789,775.875c0,0-18.699,42.691-23.209,140.832c0,0,140.723,44.141,184.861,0l0.25-140.832
		H397.789z"/>
	<path style="fill:#002044;" d="M490.043,916.707c0,32.936-25.85,59.633-57.733,59.633c-31.883,0-57.73-26.697-57.73-59.633
		c0-32.934,25.848-59.631,57.73-59.631C464.193,857.076,490.043,883.773,490.043,916.707z"/>
	<path style="fill:#002044;" d="M559.441,922.147c0,32.934-14.484,59.635-46.369,59.635c-31.883,0-57.728-26.701-57.728-59.635
		c0-32.938,25.846-59.631,57.728-59.631C544.957,862.516,559.441,889.209,559.441,922.147z"/>
	<path style="fill:#002044;" d="M374.58,923.967l-12.299,247.957c0,0,21.766,68.141,70.029,28.393l42.701-273.365
		C475.012,926.951,461.65,855.826,374.58,923.967z"/>
	<path style="fill:#002044;" d="M362.281,1171.924c0,0-19.25,40.842-17.777,101.287l8.311,183.049h43.535l35.961-255.943
		C432.31,1200.316,399.191,1113.248,362.281,1171.924z"/>
	<path style="fill:#002044;" d="M469.453,943.088l3.555,228.207c0,0,58.043,51.734,73.191,13.881c0,0,16.398-175.258,13.242-263.029
		C559.441,922.147,489.643,863.59,469.453,943.088z"/>
	<path style="fill:#002044;" d="M473.008,1171.295c0,0-17.664,27.732-8.99,105.305l15.301,179.66h46.686l20.195-271.084
		C546.199,1185.176,515.822,1126.605,473.008,1171.295z"/>
	<g>
		<path style="fill:#F7A483;" d="M330.117,748.822c-11.287,113.178-6.658,120.664-5.48,166.055c0,0-6.025,15.973-16.283,7.002
			c-10.262-8.961-26.627-159.674-21.471-171.697C294.551,732.344,330.117,748.822,330.117,748.822z"/>
		<path style="fill:#F7A483;" d="M322.969,910.367l15.918,15.91l13.525,19.82c-6.695,4.5-13.711-6.59-13.711-6.59
			c4.375,17.471,12.867,32.883,12.867,32.883c2.055,6.26-3.858,5.797-3.858,5.797c-6.601-6.779-15.057-26.775-15.057-26.775
			c3.176,11.908,11.26,30.893,11.26,30.893c0.756,5.447-4.703,3.898-4.703,3.898c-11.228-6.648-14.959-30.896-14.959-30.896
			c1.119,9.195,8.371,28.098,8.371,28.098c-1.305,3.742-3.129,2.459-3.129,2.459c-9.705-3.897-13.225-27.252-13.225-27.252
			l1.547,8.709c3.172,11.738-4.102,8.711-4.102,8.711l-2.621-5.881c-7.676-18.07-5.357-34.318-5.357-34.318l0.051-21.125
			L322.969,910.367z"/>
		<g>
			<path style="fill:#F7A483;" d="M339.039,573.168l-12.199,1.42c0,0-47.824,152.254-38.842,186.865
				c8.975,34.606,26.627,4.162,33.1,1.756c6.469-2.41,83.049-167.25,83.049-167.25L339.039,573.168z"/>
			<path style="fill:#95D7E3;" d="M356.621,736.771c-28.447,8.645-77.572-34.144-77.572-34.144L319.77,566.74
				c0,0,5.965-27.949,43.875-25.875c0,0,43.076,3.082,44.475,49.014L356.621,736.771z"/>
		</g>
	</g>
	<path style="fill:#F7A483;" d="M433.348,443.77v65.271h69.023c0,0-16.977-25.873-8.486-65.271H433.348z"/>
	<path style="fill:#E1876F;" d="M468.363,499.195c6.219,4.004,19.441,12.521,26.98,7.535c2.031-1.34,2.971-3.096,3.277-5.057
		c-4.44-10.342-10.543-30.957-4.736-57.904h-60.537v5.918C440.9,468.793,450.59,487.738,468.363,499.195z"/>
	<g>
		<path style="fill:#F8A07D;" d="M432.699,445.199c0,0-11.865-4.828-25.826-33.586c0,0-29.664-33.705-10.102-73.195
			c0,0,11.334-33.277,70.125-25.395C466.896,313.023,474.203,401.336,432.699,445.199z"/>
		<path style="fill:#F7A483;" d="M505.252,461.184l3.676-10.316c0,0,9.902-38.316,9.902-38.322
			c1.242-4.818,1.176-11.228,0.191-16.127c-1.07-5.328-1.803-10.91-0.537-16.586c6.17-27.539-8.215-42.756-8.215-42.756
			c-16.064-25.463-54.139-25.44-54.139-25.44c-47.09,2.309-51.059,47.879-51.059,47.879c-7.648,30.305,16.459,55.549,16.51,55.6
			c1.922,2.012,0.936,11.992,1.51,14.828c2.486,12.092,14.059,19.533,24.309,24.654c11.27,5.625,24.895,11.611,37.498,12.771
			C489.676,467.807,503.15,467.102,505.252,461.184z"/>
	</g>
	<path style="fill:#E98B6F;" d="M494.715,403.887l-13.016,4.289c0,0,17.176,1.935,18.088-3.035c0,0-2.111-9.9-4.471-19.289
		C495.316,385.852,496.648,403.25,494.715,403.887z"/>
	<g>
		<path style="fill:#3C2415;" d="M473.342,384.744c-0.135,2.699-1.74,4.801-3.565,4.709c-1.83-0.094-3.205-2.346-3.066-5.045
			c0.135-2.693,1.729-4.805,3.553-4.715C472.096,379.785,473.477,382.047,473.342,384.744z"/>
		<path style="fill:#3C2415;" d="M510.381,382.51c-0.139,2.697-1.736,4.803-3.568,4.709c-1.826-0.092-3.199-2.346-3.063-5.045
			c0.135-2.697,1.728-4.809,3.553-4.715C509.137,377.549,510.52,379.81,510.381,382.51z"/>
		<path style="fill:#3C2415;" d="M477.273,375.441c1.18,0.309,1.551-1.279,1.551-1.279c0.457-1.529,0.068-2.867,0.068-2.867
			c-0.434-1.123-1.346-1.512-1.346-1.512c-3.061-0.588-9.063-0.125-14.205,1.131c-2.84,0.689-7.486,2.547-7.908,5.109
			c-0.125,0.77-0.266,2.098,0.596,2.375C456.029,378.398,465.818,375.9,477.273,375.441z"/>
		<path style="fill:#3C2415;" d="M519.363,373.359c-3.352-0.111-9.27-0.096-16.551,0.893c-1.107,0.508-1.75-0.988-1.75-0.988
			c-0.711-1.434-0.563-2.811-0.563-2.813c0.223-1.176,1.06-1.725,1.06-1.725c2.904-1.111,7.025-1.633,12.299-1.295
			c1.578,0.104,4.297,0.453,6.092,1.137C519.951,368.568,520.256,369.57,519.363,373.359z"/>
	</g>
	<g>
		<path style="fill:#FFFFFF;" d="M504.35,419.168c1.045,0.045,1.582,0.563,1.152,1.289c0,0-5.029,8.406-13.121,8.969
			c-8.098,0.564-14.297-7.047-14.297-7.047c-0.604-0.738-0.01-1.42,1.301-1.523C479.385,420.855,493.357,419.785,504.35,419.168z"/>
	</g>
	<path style="fill:#95D7E3;" d="M386.58,770.402c0.141,6.711-10.047,76.938-5.768,77.834c0.027,0.006,116.508,26.848,178.629,0
		l0.25-72.361l32.973-201.481c0,0,11.357-30.285-11.359-45.428l-86.59-40.693l5.852,17.549l-12.523,35.603l-54.385-53.152
		l-104.096,61.518c5.816,19.275,11.598,38.561,17.418,57.838c10.729,35.537,21.168,71.174,32.221,106.613
		C379.201,714.242,388.357,752.68,386.58,770.402z"/>
	<polygon style="fill:#3EAEC6;" points="480.533,500.941 479.809,533.379 467.859,521.697 	"/>
	<path style="fill:#7AD0E2;" d="M512.783,501.861c0,0-3.514-13.588-20.729-25.064l2.248,46.83
		C494.303,523.627,503.857,499.67,512.783,501.861z"/>
	<path style="fill:#3EAEC6;" d="M514.35,523.627l-1.566-21.766c-5.258-1.291-9.953,6.072-13.787,12.103L514.35,523.627z"/>
	<g>
		<path style="fill:#CFEAE6;" d="M495.742,553.25c0,2.557-2.074,4.627-4.627,4.627c-2.555,0-4.629-2.07-4.629-4.627
			c0-2.555,2.074-4.627,4.629-4.627C493.668,548.623,495.742,550.695,495.742,553.25z"/>
	</g>
	<g>
		<path style="fill:#CFEAE6;" d="M495.742,637.299c0,2.555-2.074,4.625-4.627,4.625c-2.555,0-4.629-2.07-4.629-4.625
			c0-2.557,2.074-4.629,4.629-4.629C493.668,632.67,495.742,634.742,495.742,637.299z"/>
	</g>
	<g>
		<path style="fill:#CFEAE6;" d="M495.742,721.346c0,2.555-2.074,4.627-4.627,4.627c-2.555,0-4.629-2.072-4.629-4.627
			c0-2.557,2.074-4.627,4.629-4.627C493.668,716.719,495.742,718.789,495.742,721.346z"/>
	</g>
	<g>
		<path style="fill:#CFEAE6;" d="M495.742,805.393c0,2.555-2.074,4.627-4.627,4.627c-2.555,0-4.629-2.072-4.629-4.627
			s2.074-4.627,4.629-4.627C493.668,800.766,495.742,802.838,495.742,805.393z"/>
	</g>
	
		<line style="fill:none;stroke:#74CEE2;stroke-width:2.5053;stroke-miterlimit:10;" x1="480.533" y1="537.072" x2="480.533" y2="856.051"/>
	<g>
		<path style="fill:#471F08;" d="M558.729,854.885c0,0-59.5,27.871-181.256-0.619c-2.004-0.471-1.16-5.67-1.16-5.67l1.16-11.719
			c0.529-3.758,2.627-3.578,2.627-3.578c0.027,0.004,116.508,26.846,178.629,0c0,0,2.508-0.438,2.611,3.32v14.613
			C561.34,851.232,561.34,854.156,558.729,854.885z"/>
		<g>
			<path style="fill:none;stroke:#BCBEC0;stroke-width:4.0986;stroke-miterlimit:10;" d="M498.289,863.729
				c0,1.857-1.473,3.361-3.283,3.361h-23.697c-1.815,0-3.283-1.504-3.283-3.361V846.66c0-1.855,1.469-3.363,3.283-3.363h23.697
				c1.81,0,3.283,1.508,3.283,3.363V863.729z"/>
			
				<line style="fill:none;stroke:#BCBEC0;stroke-width:4.0986;stroke-miterlimit:10;" x1="468.025" y1="854.119" x2="480.568" y2="854.119"/>
		</g>
	</g>
	<path style="fill:#7AD0E2;" d="M480.533,500.211c0,0-38.197-14.832-47.185-29.609l-11.291,21.514l40.27,38.613l18.207-29.787"/>
	<path style="fill:#3C2415;" d="M511.809,339.014c0,0,21.33-18.707,11.453-34.258c0,0-16.986-18.834-48.498-14.152
		c-31.504,4.682-31.105-4.076-55.756,8.477c-24.654,12.551-28.996,10.063-34.516,34.004c-5.217,22.625-2.088,31.041,1.824,44.615
		c3.912,13.576,8.676,41.428,34.879,57.201c0,0-17.805-39.945,11.693-30.768l3.219-0.26c0,0-6.902-20.553,6.166-31.082
		c-6.494-7.963-1.744-24.283-0.514-26.627c6.182-11.803,24.914-7.264,35.74-10.604C485.871,332.978,506.746,328.941,511.809,339.014
		z"/>
	<g>
		<g>
			<g>
				<g>
					<g>
						<g>
							<path style="fill:#F7A483;" d="M428.74,419.389c-1.635,1.451-3.805,2.371-6.582,2.523
								c-7.502,0.41-14.211-6.168-14.984-14.697c-0.772-8.51,4.676-15.75,12.174-16.16c3.555-0.189,6.939,1.188,9.584,3.592
								c3.861,3.518,4.459,10.453,3.943,15.303C432.463,413.826,431.191,417.215,428.74,419.389z"/>
						</g>
					</g>
				</g>
			</g>
		</g>
		<g>
			<g>
				<path style="fill:#E98B6F;" d="M422.93,398.785c-0.754-4.449-9.51,0.461-7.969,2.887c0.904,1.398,2.553,2.348,3.877,3.279
					c1.807,1.285,2.727,2.494,3.125,4.701c0.051,0.258,0.148,1.033-0.094,1.234c-1.123,0.897-5.258-3.217-6.172-4.076
					c-1.781-1.695-2.23-4.787-1.586-7.084c0.684-2.449,2.17-3.689,4.744-3.711c2.033-0.023,4.121-0.025,4.176,2.514
					C423.031,398.586,422.969,399.012,422.93,398.785L422.93,398.785z"/>
			</g>
			<g>
				<path style="fill:#E98B6F;" d="M420.355,403.637c0.877-1.016,1.826-0.297,2.844,0.338c0.943,0.588,1.508,1.484,1.811,2.527
					c0.684,2.291,0.578,5.428-0.611,7.551c-0.963,1.717-2.705,2.846-4.685,2.932c-2.732,0.105-3.709-2.246-3.973-4.549
					c-0.074-0.613-0.23-2.078,0.355-2.5c0.621-0.447,1.154,0.525,1.617,0.932c0.652,0.539,1.559,0.695,2.371,0.709
					c1.568,0.031,3.037-0.867,3.943-2.092c0.152-0.217,0.283-0.475,0.358-0.729c0.102,1.508,0.047,1.854-0.168,1.029
					c-0.152-0.377-0.348-0.715-0.592-1.025c-0.699-1.004-1.824-1.648-2.594-2.592C420.658,405.732,419.92,404.15,420.355,403.637
					L420.355,403.637z"/>
			</g>
		</g>
	</g>
	<path style="fill:#3C2415;" d="M429.523,443.207c24.404,21.957,55.375,24.162,55.375,24.162
		c18.053,1.568,20.354-6.186,20.354-6.186c5.402-10.111,12.713-45.299,12.713-45.299c-0.223,1.07-7.783-2.598-8.568-2.879
		c-5.896-2.131-12.424-1.422-18.531-0.842c-5.973,0.57-12.121,1.582-17.191,5.014c-0.592,0.398-5.125,5.041-5.545,4.992
		c-3.201-0.365-10.715-1.377-10.715-1.377c-17.381-2.252-21.307-16.92-21.307-16.92l-3.213,0.26l-4.189,22.17
		C428.705,426.303,425.494,440.273,429.523,443.207z M500.621,446.908c-6.881,4.885-20.688,1.34-25.063-5.947
		c-2.584-4.313-4.023-11.252-2.315-16.059c1.932-5.461,8.08-6.213,13.033-6.934c6.127-0.889,12.854-2.059,19.043-1.029
		c3.127,0.521,3.316,2.814,4.09,6.447C510.863,430.238,506.473,442.748,500.621,446.908z"/>
	<path style="fill:#3C2415;" d="M487.232,434.184c-1.385,1.98,1.984,3.977,3.26,4.779c2.541,1.594,2.943,1.469,5.352-0.74
		c1.574-1.449,5.703-5.064,1.893-6.158C496.543,431.723,487.842,433.316,487.232,434.184z"/>
	<path style="fill:#E59375;" d="M587.254,962.992c0,0,14.555-20.91,34.238-21.908c0,0,25.135,3.072,18.885,13.926
		C640.377,955.01,632.502,978.404,587.254,962.992z"/>
	<g>
		<path style="fill:#FFFFFF;" d="M531.777,339.773c0.43-3.012,0.676-6.078,0.676-9.195c0-38.852-34.189-70.35-76.357-70.35
			c-42.166,0-76.354,31.498-76.354,70.35c0,3.117,0.246,6.184,0.672,9.195c0,0,0.16,30.348,104.455,27.588
			C484.869,367.361,562.881,362.057,531.777,339.773z"/>
		<path style="fill:#E6E7E8;" d="M531.777,339.773c0.43-3.012,0.676-6.078,0.676-9.195c0-5.758-0.766-11.348-2.185-16.705
			c-0.607,4.506-1.928,9.215-6.279,12.221c-4.43,3.061-9.906,4.846-15.74,4.598c-5.148-0.221-10.645-1.623-13.566-5.432
			c-3.375-4.404-4.191-9.842-4.824-14.938c-1.682-13.633-5.502-26.887-9.195-40.227c-1.477-2.352-2.807-4.746-3.853-7.234
			c-6.588-1.707-13.531-2.633-20.713-2.633c-4.377,0-8.668,0.359-12.85,1.014c5.275,6.301,8.387,13.982,10.236,21.522
			c1.728,7.043,2.648,14.191,3.299,21.352c0.578,6.381,1.639,13.025-0.357,19.316c-1.811,5.707-6.07,10.383-13.279,11.75
			c-7.73,1.465-16.127,0.254-23.275-2.477c-7.338-2.799-13.418-6.934-16.514-13.268c-3.358-6.875-3.553-14.432-1.19-21.559
			c4.047-12.219,13.195-23.25,24.229-32.127c-27.41,10.674-46.652,35.68-46.652,64.826c0,3.117,0.246,6.184,0.672,9.195
			c0,0,0.125,23.168,69.73,27.178c-1.43-1.16-2.48-2.537-2.879-4.223c-2.838-11.838,17.07-12.447,26.322-13.049
			c9.73-0.633,19.459-2.113,29.137-3.158c10.471-1.129,20.973-2.455,30.982-5.262C533.113,340.77,532.484,340.277,531.777,339.773z"
			/>
		<g>
			<path style="fill:#D1D3D4;" d="M399.842,343.299c0,0,2.059,0.326,5.67,0.711c1.811,0.188,3.977,0.543,6.502,0.711
				c2.521,0.195,5.361,0.416,8.449,0.728c3.084,0.348,6.459,0.369,10.01,0.586c3.555,0.111,7.287,0.482,11.168,0.463
				c3.875,0.051,7.881,0.102,11.953,0.156c4.07,0.156,8.197-0.103,12.326-0.297c4.135-0.125,8.266-0.248,12.334-0.371
				c4.07-0.088,8.039-0.703,11.9-1.012c3.859-0.406,7.596-0.689,11.146-0.977c3.563-0.18,6.867-0.795,9.934-1.281
				c6.125-1,11.277-1.648,14.871-2.191c3.607-0.478,5.672-0.752,5.672-0.752s-2.016,0.482-5.549,1.328
				c-3.549,0.783-8.602,2.025-14.721,3.297c-3.057,0.643-6.357,1.428-9.92,1.787c-3.549,0.469-7.291,0.98-11.172,1.4
				c-3.889,0.375-7.883,1.061-11.982,1.219c-4.098,0.189-8.264,0.381-12.426,0.574c-4.168,0.127-8.33,0.318-12.435,0.094
				c-4.102-0.121-8.135-0.24-12.039-0.357c-3.908,0.01-7.658-0.605-11.227-0.889c-3.56-0.396-6.938-0.588-10.023-1.092
				c-3.094-0.432-5.922-0.896-8.422-1.305c-2.506-0.371-4.664-0.91-6.451-1.244C401.84,343.885,399.842,343.299,399.842,343.299z"/>
		</g>
		<path style="fill:none;stroke:#BCBEC0;stroke-width:2.5053;stroke-miterlimit:10;" d="M531.777,339.773
			c0.43-3.012,0.676-6.078,0.676-9.195c0-38.852-34.189-70.35-76.357-70.35c-42.166,0-76.354,31.498-76.354,70.35
			c0,3.117,0.246,6.184,0.672,9.195c0,0,0.16,30.348,104.455,27.588C484.869,367.361,562.881,362.057,531.777,339.773z"/>
		<g>
			<path style="fill:#E2E3E4;" d="M487.084,346.342c9.955-55.307-10.516-84.352-10.516-84.352
				c-2.773-4.863-13.209-5.898-13.209-5.898h-12.15c-15.957,0.459-10.787,7.621-10.787,7.621s22.941,25.676,22.35,84.389
				L487.084,346.342z"/>
			<g>
				<path style="fill:#D1D3D4;" d="M439.057,261.99c0,0,1.031,1.002,2.629,2.941c1.537,1.979,3.844,4.771,6.074,8.471
					c1.191,1.807,2.273,3.883,3.525,6.023c1.096,2.219,2.426,4.488,3.434,7.004c1.088,2.479,2.205,5.047,3.098,7.752
					c1.016,2.662,1.779,5.449,2.59,8.225c0.846,2.768,1.281,5.637,1.934,8.406c0.598,2.781,0.816,5.584,1.229,8.256
					c0.379,2.68,0.365,5.313,0.527,7.781c0.195,2.469,0.041,4.816,0.019,6.973c-0.066,2.156-0.025,4.135-0.293,5.875
					c-0.203,1.738-0.381,3.254-0.531,4.502c-0.33,2.484-0.52,3.902-0.52,3.902s-0.023-1.432-0.068-3.939
					c0-1.248-0.002-2.762-0.006-4.498c0.047-1.734-0.233-3.689-0.283-5.816c-0.139-2.125-0.147-4.43-0.522-6.846
					c-0.338-2.414-0.533-4.971-0.965-7.586c-0.48-2.607-0.869-5.316-1.457-8.033c-0.668-2.697-1.129-5.492-1.982-8.186
					c-0.76-2.719-1.469-5.453-2.432-8.063c-0.859-2.645-1.795-5.213-2.785-7.674c-0.932-2.482-2.033-4.799-2.951-7.057
					c-1.074-2.178-1.99-4.303-3.035-6.156C442.395,266.668,439.057,261.99,439.057,261.99z"/>
			</g>
			<g>
				<path style="fill:#D1D3D4;" d="M476.568,261.99c0,0,0.875,1.045,2.162,3.064c1.242,2.035,2.963,5.004,4.598,8.779
					c0.732,1.914,1.648,3.955,2.361,6.201c0.805,2.217,1.529,4.598,2.145,7.096c0.693,2.479,1.146,5.102,1.693,7.748
					c0.381,2.672,0.811,5.385,1.102,8.111c0.162,2.736,0.465,5.467,0.5,8.162c0.029,2.697,0.08,5.352-0.021,7.914
					c-0.125,2.563-0.324,5.035-0.5,7.375c-0.297,2.326-0.578,4.525-0.838,6.559c-0.422,4.068-1.412,7.365-1.838,9.701
					c-0.539,2.316-0.848,3.641-0.848,3.641s0.098-1.357,0.268-3.732c0.182-2.369,0.574-5.73,0.723-9.781
					c0.102-2.021,0.217-4.209,0.332-6.521c-0.008-2.32-0.027-4.76,0.037-7.277c0.023-2.52-0.203-5.117-0.234-7.76
					c-0.065-2.642-0.404-5.307-0.59-7.98c-0.248-2.668-0.637-5.322-0.971-7.938c-0.527-2.582-0.801-5.178-1.402-7.617
					c-0.543-2.451-1.033-4.834-1.658-7.055c-0.527-2.252-1.268-4.303-1.844-6.24c-0.721-1.877-1.258-3.66-1.883-5.176
					c-0.574-1.545-1.168-2.846-1.645-3.932C477.223,263.188,476.568,261.99,476.568,261.99z"/>
			</g>
		</g>
	</g>
	<path style="fill:#EF7743;" d="M410.842,501.758c0,0,51.689,86.174,51.689,148.18c0,0,4.605,120.637-5.732,258.865
		c0,0-33.768,1.565-88.809-10.52l13.756-116.609c0,0,0.713-66.736-19.465-114.791l-32.719-117.092L410.842,501.758z"/>
	<path style="fill:#EF7743;" d="M521.674,500.941l60.358,27.803c0,0,16.652,8.328,13.469,30.795l-34.16,221.924l6.555,127.404
		c0,0-41.242,3.26-53.24,1.5c5.988-247.693,6.31-247.682,8.662-298.01C523.316,612.357,525.873,552.676,521.674,500.941z"/>
	<g>
		<path style="fill:none;" d="M463.15,674.221c0.324,17.537,0.588,43.701,0.236,75.576h55.244c0.912-35.16,1.57-58.348,2.127-75.576
			H463.15z"/>
		<path style="fill:#FFF200;" d="M462.531,649.938c0-5.586-0.432-11.371-1.195-17.268H352.721l9.561,34.213
			c1.01,2.398,1.949,4.855,2.854,7.338h98.016C462.865,658.713,462.531,649.938,462.531,649.938z"/>
		<path style="fill:#FFF200;" d="M380.283,749.797c1.602,18.768,1.463,31.877,1.463,31.877l-1.139,9.674h82.002
			c0.385-14.664,0.635-28.58,0.777-41.551H380.283z"/>
		<path style="fill:#FFF200;" d="M577.85,674.221l6.394-41.551h-61.877c-0.551,11.98-1.025,23.516-1.609,41.551H577.85z"/>
		<path style="fill:#FFF200;" d="M566.215,749.797h-47.584c-0.322,12.295-0.674,26.064-1.059,41.551h44.279l-0.512-9.885
			L566.215,749.797z"/>
	</g>
</g>
<g>
	<g>
		<path style="fill:#E59375;" d="M1091.791,560.9l12.01,2.621c0,0,32.846,141.334,20.488,174.889
			c-12.357,33.553-32.221,0.336-38.426-2.701c-6.199-3.031-61.111-158.566-61.111-158.566L1091.791,560.9z"/>
		<path style="fill:#001940;" d="M1133.182,720.717l-21.594-164.146c-12.857-43.188-60.314-27.236-60.314-27.236
			c-35.6,13.201-29.938,41.213-29.938,41.213l48.75,168.658c0,0,9.232,25.605,43.055,22.199
			C1113.141,761.404,1137.762,755.521,1133.182,720.717z"/>
	</g>
	<path style="fill:#2C080D;" d="M1048.014,1435.545c0,0,5.848,24.951,13.533,31.842c7.688,6.902,37.373,17.436,37.373,17.436
		l16.508,2.732c0,0,11.332,8.496-20.447,16.506c-31.77,8.014-86.658-19.371-86.658-19.371l13.578-50.459L1048.014,1435.545z"/>
	<path style="fill:#2C080D;" d="M908.379,1495.875c-5.578-8.691-17.266-56.055-17.266-56.055l-25.813-0.779l-16.158,52.139
		c0,0-2.592,8.732,2.682,12.002c0,0,32.195,11.176,59.693-0.533C911.518,1502.648,911.227,1500.314,908.379,1495.875z"/>
	<path style="fill:#F7A483;" d="M1068.441,776.736l32.965-201.48c0,0,11.357-30.285-11.357-45.426l-86.584-40.693H942.4
		l-104.092,61.516l68.227,226.084H1068.441z"/>
	<path style="fill:#00264E;" d="M906.535,776.736c0,0-18.699,42.691-23.209,140.832c0,0,140.725,44.141,184.865,0l0.25-140.832
		H906.535z"/>
	<g>
		<path style="fill:#00264E;" d="M998.789,917.143c0.24,32.935-25.406,59.826-57.287,60.059
			c-31.887,0.232-57.93-26.271-58.172-59.207c-0.24-32.932,25.406-59.818,57.291-60.053
			C972.504,857.705,998.547,884.215,998.789,917.143z"/>
		<path style="fill:#00264E;" d="M883.383,925.254l-10.471,248.045c0,0,22.262,67.975,70.234,27.873l40.684-273.674
			C983.83,927.498,969.949,856.477,883.383,925.254z"/>
	</g>
	<path style="fill:#00264E;" d="M872.928,1171.059c0,0-24.428,60.01-20.644,124.135l1.359,163.242l43.514,1.301l45.734-257.771
		C942.891,1201.965,911.574,1113.512,872.928,1171.059z"/>
	<g>
		<path style="fill:#00264E;" d="M1067.924,917.729c3.342,32.764-8.363,60.793-40.086,64.029
			c-31.717,3.236-60.141-20.701-63.482-53.467c-3.34-32.762,19.662-61.945,51.379-65.184
			C1047.455,859.875,1064.584,884.963,1067.924,917.729z"/>
		<path style="fill:#00264E;" d="M980.519,947.695l26.695,226.668c0,0,63,45.578,74.223,6.377c0,0-1.471-176.014-13.514-263.012
			C1067.924,917.729,992.537,866.559,980.519,947.695z"/>
	</g>
	<path style="fill:#00264E;" d="M1007.41,1171.748c0,0-15.506,27.279-12.178,89.805l15.848,190.824l46.666,1.396l23.775-277.984
		C1081.521,1175.789,1051.529,1128.357,1007.41,1171.748z"/>
	<g>
		<path style="fill:#F7A483;" d="M847.406,575.424l-11.867,3.17c0,0-18.516,142.068-4.619,175.016
			c13.885,32.943,26.949,0.266,33.002-3.051c6.057-3.322,51.203-162.004,51.203-162.004L847.406,575.424z"/>
		<path style="fill:#001940;" d="M879.283,749.283l38.893-167.318c-8.027-45.248-51.098-42.064-51.098-42.064
			c-37.813,3.434-39.672,31.949-39.672,31.949l-2.5,170.174c0,0-2.496,29.086,19.426,27.539
			C844.332,769.563,875.709,764.658,879.283,749.283z"/>
	</g>
	<path style="fill:#F7A483;" d="M942.094,444.633v65.27h69.02c0,0-16.973-25.873-8.482-65.27H942.094z"/>
	<path style="fill:#E1876F;" d="M977.107,500.059c6.221,4.004,19.44,12.521,26.986,7.535c2.027-1.342,2.965-3.098,3.273-5.059
		c-4.44-10.34-10.543-30.955-4.736-57.902h-60.537v5.916C949.646,469.654,959.336,488.602,977.107,500.059z"/>
	<g>
		<path style="fill:#F8A07D;" d="M940.445,445.545c0,0-11.746-5.1-25.047-34.174c0,0-28.877-34.379-8.408-73.406
			c0,0,12.094-33.008,70.693-23.771C977.684,314.193,982.953,402.65,940.445,445.545z"/>
		<path style="fill:#F7A483;" d="M1012.613,463.197l3.908-10.23c0,0,10.787-38.074,10.787-38.082
			c1.352-4.787,1.432-11.197,0.561-16.119c-0.945-5.352-1.551-10.947-0.156-16.594c6.805-27.389-7.229-42.93-7.229-42.93
			c-15.465-25.828-53.535-26.686-53.535-26.686c-47.129,1.223-52.148,46.688-52.148,46.688
			c-8.344,30.125,15.176,55.914,15.223,55.969c1.879,2.057,0.658,12.008,1.168,14.857c2.207,12.148,13.605,19.852,23.736,25.209
			c11.135,5.885,24.619,12.182,37.193,13.631C996.891,469.461,1010.373,469.066,1012.613,463.197z"/>
	</g>
	<path style="fill:#E98B6F;" d="M1003.404,405.674l-13.117,3.986c0,0,17.127,2.334,18.154-2.615c0,0-1.889-9.945-4.023-19.389
		C1004.418,387.656,1005.348,405.078,1003.404,405.674z"/>
	<g>
		<path style="fill:#3C2415;" d="M982.473,386.043c-0.195,2.693-1.852,4.76-3.676,4.625c-1.824-0.133-3.148-2.422-2.949-5.113
			c0.199-2.693,1.842-4.766,3.666-4.633C981.342,381.057,982.672,383.352,982.473,386.043z"/>
		<path style="fill:#3C2415;" d="M1019.553,384.662c-0.197,2.695-1.846,4.764-3.676,4.627c-1.824-0.133-3.148-2.42-2.945-5.115
			c0.195-2.693,1.836-4.768,3.664-4.635C1018.424,379.674,1019.752,381.971,1019.553,384.662z"/>
		<path style="fill:#8D5120;" d="M986.617,376.834c1.174,0.334,1.582-1.246,1.582-1.246c0.49-1.518,0.129-2.863,0.129-2.863
			c-0.402-1.133-1.309-1.543-1.309-1.543c-3.039-0.656-9.06-0.332-14.223,0.803c-2.857,0.623-7.547,2.375-8.029,4.928
			c-0.143,0.766-0.315,2.09,0.545,2.387C965.313,379.299,975.156,377.029,986.617,376.834z"/>
		<path style="fill:#8D5120;" d="M1028.744,375.723c-3.352-0.188-9.266-0.311-16.566,0.512c-1.121,0.478-1.723-1.029-1.732-1.029
			c-0.676-1.449-0.494-2.824-0.494-2.826c0.25-1.172,1.102-1.699,1.102-1.699c2.928-1.041,7.061-1.471,12.326-1.01
			c1.574,0.139,4.287,0.551,6.064,1.279C1029.443,370.949,1029.725,371.955,1028.744,375.723z"/>
	</g>
	<g>
		<path style="fill:#FFFFFF;" d="M1012.201,420.357c1.043,0.125,1.588,0.922,1.148,1.98c0,0-5.047,12.178-13.148,12.564
			c-8.107,0.387-14.303-11.248-14.303-11.248c-0.605-1.129-0.006-2.105,1.305-2.186
			C987.203,421.469,1001.191,420.66,1012.201,420.357z"/>
	</g>
	<path style="fill:#95D7E3;" d="M895.328,771.264c0.143,6.711-10.049,76.938-5.769,77.836c0.027,0.006,116.508,26.846,178.633,0
		l0.25-72.363l32.965-201.48c0,0,11.357-30.285-11.357-45.426l-86.584-40.693l5.844,17.549l-12.52,35.602l-54.389-53.15
		l-104.092,61.516c5.814,19.277,11.598,38.563,17.414,57.84c10.732,35.535,21.176,71.174,32.229,106.611
		C887.951,715.104,897.1,753.543,895.328,771.264z"/>
	<polygon style="fill:#3EAEC6;" points="989.277,501.805 988.553,534.24 976.605,522.559 	"/>
	<g>
		<path style="fill:#CFEAE6;" d="M1004.492,554.113c0,2.555-2.074,4.627-4.631,4.627c-2.555,0-4.629-2.072-4.629-4.627
			c0-2.557,2.074-4.627,4.629-4.627C1002.418,549.486,1004.492,551.557,1004.492,554.113z"/>
	</g>
	<g>
		<path style="fill:#CFEAE6;" d="M1004.492,638.16c0,2.555-2.074,4.627-4.631,4.627c-2.555,0-4.629-2.072-4.629-4.627
			c0-2.557,2.074-4.627,4.629-4.627C1002.418,633.533,1004.492,635.604,1004.492,638.16z"/>
	</g>
	<g>
		<path style="fill:#CFEAE6;" d="M1004.492,722.207c0,2.557-2.074,4.629-4.631,4.629c-2.555,0-4.629-2.072-4.629-4.629
			c0-2.555,2.074-4.627,4.629-4.627C1002.418,717.58,1004.492,719.652,1004.492,722.207z"/>
	</g>
	<g>
		<path style="fill:#CFEAE6;" d="M1004.492,806.256c0,2.555-2.074,4.627-4.631,4.627c-2.555,0-4.629-2.072-4.629-4.627
			c0-2.557,2.074-4.629,4.629-4.629C1002.418,801.627,1004.492,803.699,1004.492,806.256z"/>
	</g>
	
		<line style="fill:none;stroke:#74CEE2;stroke-width:2.5053;stroke-miterlimit:10;" x1="989.277" y1="537.935" x2="989.277" y2="856.914"/>
	<g>
		<path style="fill:#471F08;" d="M1067.475,855.746c0,0-59.496,27.873-181.256-0.617c-2.004-0.471-1.16-5.67-1.16-5.67l1.16-11.719
			c0.529-3.758,2.627-3.578,2.627-3.578c0.027,0.002,116.504,26.844,178.629,0c0,0,2.508-0.439,2.611,3.318v14.613
			C1070.086,852.094,1070.086,855.018,1067.475,855.746z"/>
		<g>
			<path style="fill:none;stroke:#BCBEC0;stroke-width:4.0986;stroke-miterlimit:10;" d="M1007.035,864.59
				c0,1.859-1.469,3.361-3.287,3.361h-23.693c-1.811,0-3.283-1.502-3.283-3.361v-17.066c0-1.855,1.473-3.363,3.283-3.363h23.693
				c1.818,0,3.287,1.508,3.287,3.363V864.59z"/>
			
				<line style="fill:none;stroke:#BCBEC0;stroke-width:4.0986;stroke-miterlimit:10;" x1="976.771" y1="854.981" x2="989.314" y2="854.981"/>
		</g>
	</g>
	<path style="fill:#7AD0E2;" d="M989.277,501.072c0,0-38.195-14.832-47.184-29.607l-11.287,21.512l40.266,38.615l18.205-29.787"/>
	<path style="fill:#8D5120;" d="M1021.984,341.213c-4.83-10.189-25.793-6.633-34.221-4.246c-10.898,3.09-29.525-1.879-35.979,9.779
		c-1.279,2.314-6.404,18.52-0.098,26.633c-13.307,10.223-6.881,30.93-6.881,30.93l-3.223,0.186
		c-18.672-4.84-12.398,30.486-12.398,30.486s-19.85-14.447-34.844-70.305c0,0-3.537-32.75,16.719-45.703
		c0,0,10.254-4.271,7.348-16.418c0,0,9.551-5.576,11.223,3.338c0,0,6.709-11.436,36.582-10.494c0,0,56.406,7.291,59.189-0.668
		c0,0,5.916,9.225,2.824,17.164c0,0,10.898-2.967,11.861-16.084C1040.088,295.81,1052.639,330.018,1021.984,341.213z"/>
	<g>
		<g>
			<g>
				<g>
					<g>
						<g>
							<path style="fill:#F7A483;" d="M937.084,419.65c-1.67,1.412-3.857,2.283-6.635,2.371
								c-7.514,0.236-14.066-6.496-14.644-15.039c-0.574-8.525,5.037-15.639,12.543-15.873c3.557-0.111,6.912,1.346,9.5,3.813
								c3.775,3.603,4.215,10.549,3.59,15.387C940.932,414.174,939.584,417.531,937.084,419.65z"/>
						</g>
					</g>
				</g>
			</g>
		</g>
		<g>
			<g>
				<path style="fill:#E98B6F;" d="M931.75,398.916c-0.652-4.463-9.518,0.246-8.033,2.703c0.867,1.424,2.502,2.406,3.799,3.369
					c1.777,1.326,2.67,2.557,3.014,4.771c0.047,0.262,0.129,1.037-0.121,1.236c-1.135,0.865-5.182-3.34-6.074-4.219
					c-1.74-1.74-2.115-4.84-1.422-7.123c0.74-2.432,2.256-3.635,4.828-3.596c2.037,0.022,4.121,0.066,4.117,2.605
					C931.853,398.721,931.783,399.147,931.75,398.916L931.75,398.916z"/>
			</g>
			<g>
				<path style="fill:#E98B6F;" d="M929.066,403.707c0.896-0.994,1.832-0.252,2.836,0.406c0.924,0.609,1.473,1.516,1.748,2.568
					c0.629,2.307,0.453,5.439-0.787,7.535c-1,1.693-2.766,2.781-4.746,2.82c-2.736,0.043-3.658-2.33-3.875-4.641
					c-0.057-0.611-0.176-2.08,0.416-2.486c0.633-0.434,1.146,0.551,1.602,0.967c0.635,0.555,1.541,0.73,2.352,0.764
					c1.566,0.066,3.053-0.797,3.986-1.998c0.154-0.217,0.297-0.473,0.379-0.725c0.063,1.512,0.002,1.855-0.197,1.029
					c-0.141-0.385-0.328-0.727-0.566-1.041c-0.676-1.02-1.785-1.689-2.527-2.65C929.32,405.813,928.617,404.213,929.066,403.707
					L929.066,403.707z"/>
			</g>
		</g>
	</g>
	<path style="fill:#001940;" d="M925.103,499.359l46.299,162.637l-6.867,295.518c0,0-71.945-4.41-103.381-32.857l22.168-172.609
		l-45.014-201.395L925.103,499.359z"/>
	<path style="fill:#002952;" d="M925.103,499.359l46.299,162.637l-0.195,7.727l-58.31-59.688c0,0-6.129-10.356,2.168-16.486
		l13.775-13.182l-9.822-7.049c0,0-13.781-6.68-12.107-19.205l3.945-47.098L925.103,499.359z"/>
	<path style="fill:#001940;" d="M1027.65,500.502l52.723,24.779c0,0,30.008,7.922,23.873,39.012l-17.34,172.234l8.682,182.498
		c0,0,7.432,33.906-53.699,28.168l-21.623-289.58L1027.65,500.502z"/>
	<path style="fill:#7AD0E2;" d="M1021.531,502.725c0,0-3.514-13.588-20.732-25.066l2.254,46.83
		C1003.053,524.488,1012.606,500.533,1021.531,502.725z"/>
	<path style="fill:#3EAEC6;" d="M1023.096,524.488l-1.564-21.764c-5.26-1.291-9.959,6.07-13.789,12.104L1023.096,524.488z"/>
	<g>
		<polygon style="fill:#004788;" points="985.519,513.531 984.107,510.898 974.508,525.635 982.76,528.576 		"/>
		<path style="fill:#004788;" d="M1007.742,514.828l2.695-4.125c0,0,10.26,8.621-0.518,17.873
			C1009.92,528.576,1009.924,520.951,1007.742,514.828z"/>
		<path style="fill:#0059A5;" d="M985.519,513.531c0,0,8.143,7.232,22.223,1.297c3.08,3.924,3.07,8.91,2.178,13.748l-7.293,15.047
			h-10.188l-9.68-15.047C982.76,528.576,981.764,525.26,985.519,513.531z"/>
		<polygon style="fill:#004788;" points="992.439,543.623 984.205,758.906 1001.391,792.346 1015.418,759.076 1002.627,543.623 		
			"/>
	</g>
	<path style="fill:#002952;" d="M1027.65,500.502l13.59,6.392l9.816,45.344c0,0,4.922,11.74-2.203,14.807l-12.809,7.475
		l18.057,11.428c0,0,9.502,5.957,3.654,14.725l-36.225,70.721l-1.139-12.094L1027.65,500.502z"/>
	<path style="fill:#F7A483;" d="M935.512,680.059l-21.17-16.721c0,0-31.867-4.67-47.781-2.662c0,0-5.26,7.313,34.93,8.439
		c0,0-28.188,8.996-37.236,15.703c0,0-1.449,8.338,24.326-3.777l11.732-0.861l-27.273,13.613c0,0,1.064,5.188,25.898-1.557
		l24.9,2.73L935.512,680.059z"/>
	<path style="fill:#00153B;" d="M1071.059,683.162L934.65,666.848c-6.82,8.33-13.391,23.457-10.465,39.287l174.236,55.266
		c0,0,46.035,8.162,33.895-47.275C1132.316,714.125,1112.871,685.854,1071.059,683.162z"/>
	<path style="fill:#F7A483;" d="M1071.059,683.162c0,0-24.508,13.215-33.703,14.262l-14.26-24.607l19.482-12.643l13.361-3.072
		c0,0,21.971-5.674,27.764,24.482L1071.059,683.162z"/>
	<g>
		<path style="fill:#002952;" d="M827.188,730.894c-8.24,49.84,28.006,37.248,28.006,37.248l184.83-66.516
			c-5.209-28.645-16.928-33.123-16.928-33.123l-158.082,30.16C865.014,698.664,835.271,708.01,827.188,730.894z"/>
	</g>
	<g>
		<path style="fill:#FFFFFF;" d="M1040.943,340.52c0.432-3.012,0.676-6.076,0.676-9.195c0-38.852-34.188-70.348-76.357-70.348
			c-42.17,0-76.352,31.496-76.352,70.348c0,3.119,0.244,6.184,0.67,9.195c0,0,0.162,30.348,104.453,27.588
			C994.033,368.107,1072.049,362.805,1040.943,340.52z"/>
		<path style="fill:#E6E7E8;" d="M1040.943,340.52c0.432-3.012,0.676-6.076,0.676-9.195c0-5.756-0.771-11.348-2.184-16.705
			c-0.607,4.506-1.932,9.217-6.283,12.221c-4.426,3.063-9.904,4.848-15.742,4.6c-5.145-0.221-10.641-1.623-13.561-5.432
			c-3.377-4.408-4.195-9.842-4.824-14.938c-1.686-13.633-5.506-26.887-9.195-40.229c-1.479-2.35-2.811-4.746-3.857-7.234
			c-6.588-1.707-13.529-2.631-20.711-2.631c-4.379,0-8.672,0.357-12.848,1.012c5.273,6.301,8.385,13.982,10.236,21.523
			c1.725,7.041,2.648,14.19,3.297,21.352c0.58,6.379,1.639,13.023-0.359,19.318c-1.811,5.705-6.07,10.379-13.279,11.746
			c-7.729,1.467-16.127,0.256-23.275-2.475c-7.334-2.799-13.414-6.934-16.516-13.27c-3.356-6.873-3.547-14.432-1.19-21.557
			c4.055-12.219,13.199-23.25,24.232-32.129c-27.412,10.676-46.65,35.68-46.65,64.826c0,3.119,0.244,6.184,0.67,9.195
			c0,0,0.125,23.168,69.729,27.178c-1.43-1.158-2.477-2.539-2.879-4.223c-2.838-11.836,17.07-12.445,26.326-13.047
			c9.727-0.631,19.455-2.115,29.135-3.158c10.469-1.129,20.971-2.455,30.984-5.266
			C1042.281,341.516,1041.652,341.025,1040.943,340.52z"/>
		<g>
			<path style="fill:#D1D3D4;" d="M909.004,344.045c0,0,2.057,0.326,5.668,0.709c1.81,0.188,3.977,0.545,6.504,0.713
				c2.519,0.195,5.361,0.414,8.449,0.727c3.084,0.348,6.463,0.369,10.01,0.588c3.557,0.111,7.285,0.483,11.168,0.463
				c3.877,0.051,7.881,0.104,11.951,0.156c4.07,0.156,8.199-0.103,12.33-0.297c4.133-0.123,8.264-0.248,12.334-0.371
				c4.072-0.086,8.041-0.703,11.902-1.012c3.854-0.404,7.594-0.688,11.145-0.977c3.561-0.178,6.867-0.795,9.932-1.281
				c6.129-1,11.279-1.648,14.875-2.189c3.611-0.48,5.672-0.754,5.672-0.754s-2.021,0.483-5.551,1.33
				c-3.551,0.781-8.604,2.025-14.719,3.297c-3.057,0.641-6.357,1.426-9.922,1.787c-3.547,0.467-7.291,0.98-11.172,1.4
				c-3.889,0.375-7.885,1.06-11.986,1.217c-4.098,0.189-8.26,0.383-12.424,0.574c-4.166,0.127-8.332,0.318-12.432,0.096
				c-4.102-0.123-8.139-0.242-12.045-0.359c-3.908,0.01-7.658-0.605-11.225-0.889c-3.557-0.396-6.936-0.588-10.023-1.092
				c-3.094-0.434-5.922-0.895-8.422-1.305c-2.506-0.373-4.666-0.912-6.453-1.244C911,344.629,909.004,344.045,909.004,344.045z"/>
		</g>
		<path style="fill:none;stroke:#BCBEC0;stroke-width:2.5053;stroke-miterlimit:10;" d="M1040.943,340.52
			c0.432-3.012,0.676-6.076,0.676-9.195c0-38.852-34.188-70.348-76.357-70.348c-42.17,0-76.352,31.496-76.352,70.348
			c0,3.119,0.244,6.184,0.67,9.195c0,0,0.162,30.348,104.453,27.588C994.033,368.107,1072.049,362.805,1040.943,340.52z"/>
		<g>
			<path style="fill:#E2E3E4;" d="M996.25,347.088c9.959-55.305-10.514-84.35-10.514-84.35c-2.777-4.865-13.209-5.9-13.209-5.9
				h-12.154c-15.955,0.459-10.783,7.621-10.783,7.621s22.938,25.676,22.35,84.389L996.25,347.088z"/>
			<g>
				<path style="fill:#D1D3D4;" d="M948.225,262.738c0,0,1.031,1.002,2.629,2.943c1.537,1.977,3.84,4.77,6.074,8.471
					c1.191,1.805,2.27,3.881,3.525,6.021c1.096,2.219,2.426,4.488,3.434,7.002c1.088,2.48,2.205,5.049,3.094,7.754
					c1.018,2.66,1.783,5.449,2.594,8.225c0.846,2.768,1.281,5.637,1.93,8.404c0.598,2.781,0.82,5.586,1.231,8.258
					c0.377,2.68,0.367,5.311,0.529,7.779c0.195,2.471,0.037,4.816,0.021,6.973c-0.072,2.158-0.027,4.135-0.295,5.875
					c-0.205,1.738-0.381,3.256-0.529,4.504c-0.332,2.482-0.521,3.9-0.521,3.9s-0.023-1.432-0.066-3.939
					c0-1.246-0.004-2.762-0.008-4.498c0.047-1.734-0.236-3.689-0.287-5.814c-0.135-2.127-0.144-4.432-0.518-6.846
					c-0.338-2.414-0.537-4.973-0.969-7.586c-0.481-2.607-0.867-5.318-1.453-8.035c-0.668-2.695-1.127-5.49-1.982-8.184
					c-0.76-2.717-1.473-5.453-2.432-8.063c-0.859-2.645-1.795-5.215-2.787-7.674c-0.93-2.482-2.031-4.799-2.949-7.057
					c-1.078-2.178-1.99-4.301-3.033-6.156C951.563,267.418,948.225,262.738,948.225,262.738z"/>
			</g>
			<g>
				<path style="fill:#D1D3D4;" d="M985.736,262.738c0,0,0.875,1.045,2.162,3.064c1.242,2.035,2.963,5.004,4.598,8.779
					c0.732,1.914,1.648,3.955,2.361,6.201c0.805,2.217,1.527,4.596,2.145,7.096c0.693,2.478,1.146,5.102,1.693,7.748
					c0.379,2.672,0.811,5.385,1.102,8.111c0.162,2.736,0.465,5.467,0.5,8.162c0.029,2.697,0.08,5.352-0.023,7.914
					c-0.125,2.56-0.322,5.033-0.498,7.373c-0.297,2.328-0.58,4.529-0.84,6.559c-0.424,4.07-1.41,7.367-1.838,9.703
					c-0.537,2.315-0.848,3.639-0.848,3.639s0.098-1.357,0.266-3.732c0.186-2.367,0.574-5.728,0.727-9.781
					c0.102-2.02,0.213-4.207,0.332-6.521c-0.008-2.318-0.027-4.758,0.033-7.277c0.027-2.518-0.203-5.117-0.23-7.758
					c-0.067-2.643-0.404-5.307-0.59-7.98c-0.248-2.668-0.637-5.32-0.971-7.938c-0.527-2.582-0.801-5.178-1.402-7.615
					c-0.543-2.453-1.033-4.836-1.658-7.057c-0.529-2.252-1.266-4.303-1.844-6.238c-0.721-1.879-1.258-3.66-1.883-5.178
					c-0.574-1.545-1.168-2.846-1.645-3.932C986.393,263.935,985.736,262.738,985.736,262.738z"/>
			</g>
		</g>
	</g>
</g>
<g>
	<g>
		<g>
			<path style="fill:#CA8268;" d="M1649.736,926.647l1.4,17.023l-11.273,21.734c0,0,3.908,3.982,8.982-3.057l9.945-17.871
				l0.014-19.08L1649.736,926.647z"/>
			<path style="fill:#CA8268;" d="M1653.859,932.637l2.348,16.928l-10.037,22.326c0,0,4.121,3.756,8.793-3.555l8.939-18.406
				l-1.064-19.041L1653.859,932.637z"/>
			<path style="fill:#E59375;" d="M1672.465,937.606l-1.775-19.807l-1.771-24.553l-15.09-3.098l-6.898,25.316l-2.154,13.387
				l-2.723,18.297l-1.207,5.889c0,0,4.666,1.854,8.992-7.361l5.014-17.098l5.713,14.066l-7.154,23.584c0,0,0.617,12.598,4.674,8.121
				l14.777-32.791L1672.465,937.606z"/>
		</g>
		<path style="fill:#E59375;" d="M1647.23,559.459l11.877,3.152c0,0,25.561,157.523,11.723,190.498
			c-13.834,32.971-32.201-1.098-38.262-4.408c-6.061-3.301-53.037-175.994-53.037-175.994L1647.23,559.459z"/>
		<path style="fill:#E59375;" d="M1624.109,728.313c0,0,28.492,130.791,29.719,161.836c0,0,12.074,16.385,15.09,3.098
			c6.023-26.525,11.031-160.785,4.902-172.342C1667.699,709.352,1624.109,728.313,1624.109,728.313z"/>
		<path style="fill:#467EB3;" d="M1680.223,691.912c-31.104,23.074-90.02,16.955-90.02,16.955l-13.789-142.9
			c0,0-4.408-28.232,31.738-39.842c0,0,48.119-13.826,59.047,29.887L1680.223,691.912z"/>
	</g>
	<path style="fill:#000001;" d="M1588.379,1436.523c0,0,0.037,26.576,7.926,33.238c7.891,6.662,37.875,16.311,37.875,16.311
		l16.584,2.24c0,0,11.58,8.154-19.941,17.105c-31.518,8.953-87.201-16.779-87.201-16.779l5.631-52.115H1588.379z"/>
	<path style="fill:#000001;" d="M1474.74,1492.049c-5.834-8.521-18.932-55.516-18.932-55.516l-25.82-0.01l-14.596,52.6
		c0,0-2.336,8.807,3.037,11.922c0,0,32.512,10.207,59.65-2.318C1478.08,1498.727,1477.719,1496.402,1474.74,1492.049z"/>
	<path style="fill:#F7A483;" d="M1625.789,775.875l32.965-201.481c0,0,11.361-30.285-11.354-45.428l-86.588-40.693h-61.061
		l-104.092,61.518l68.223,226.084H1625.789z"/>
	<path style="fill:#032C51;" d="M1463.883,775.875c0,0-18.699,42.691-23.205,140.832c0,0,140.723,44.141,184.861,0l0.25-140.832
		H1463.883z"/>
	<path style="fill:#032C51;" d="M1556.137,916.707c0,32.936-25.846,59.633-57.729,59.633c-31.885,0-57.73-26.697-57.73-59.633
		c0-32.934,25.846-59.631,57.73-59.631C1530.291,857.076,1556.137,883.773,1556.137,916.707z"/>
	<path style="fill:#032C51;" d="M1625.539,922.147c0,32.934-14.488,59.635-46.373,59.635c-31.883,0-57.729-26.701-57.729-59.635
		c0-32.938,25.846-59.631,57.729-59.631C1611.051,862.516,1625.539,889.209,1625.539,922.147z"/>
	<path style="fill:#032C51;" d="M1440.678,923.967l-12.303,247.957c0,0,21.768,68.141,70.033,28.393l42.697-273.365
		C1541.105,926.951,1527.748,855.826,1440.678,923.967z"/>
	<path style="fill:#032C51;" d="M1428.375,1171.924c0,0-19.246,40.842-17.773,101.287l11.598,163.322h50.105l26.104-236.217
		C1498.408,1200.316,1465.281,1113.248,1428.375,1171.924z"/>
	<path style="fill:#032C51;" d="M1535.547,943.088l3.559,228.207c0,0,58.047,51.734,73.184,13.881c0,0,16.402-175.258,13.25-263.029
		C1625.539,922.147,1555.736,863.59,1535.547,943.088z"/>
	<path style="fill:#032C51;" d="M1539.105,1171.295c0,0-22.715,50.475-12.621,164.041l14.621,101.188h53.117l18.066-251.348
		C1612.289,1185.176,1581.914,1126.605,1539.105,1171.295z"/>
	<path style="fill:#F7A483;" d="M1396.215,747.258c-11.291,113.176-6.662,120.664-5.484,166.051c0,0-6.023,15.973-16.279,7.004
		c-10.266-8.959-26.633-159.674-21.475-171.697C1360.641,730.779,1396.215,747.258,1396.215,747.258z"/>
	<path style="fill:#F7A483;" d="M1389.066,908.803l15.918,15.912l13.521,19.816c-6.691,4.502-13.711-6.592-13.711-6.592
		c4.377,17.473,12.867,32.887,12.867,32.887c2.057,6.26-3.855,5.797-3.855,5.797c-6.607-6.779-15.059-26.779-15.059-26.779
		c3.178,11.908,11.256,30.895,11.256,30.895c0.764,5.445-4.695,3.898-4.695,3.898c-11.232-6.644-14.967-30.896-14.967-30.896
		c1.123,9.197,8.375,28.1,8.375,28.1c-1.301,3.738-3.125,2.459-3.125,2.459c-9.709-3.898-13.229-27.252-13.229-27.252l1.547,8.709
		c3.176,11.736-4.102,8.709-4.102,8.709l-2.621-5.881c-7.676-18.066-5.357-34.32-5.357-34.32l0.055-21.119L1389.066,908.803z"/>
	<g>
		<path style="fill:#F7A483;" d="M1405.133,571.602l-12.199,1.42c0,0-47.824,152.254-38.842,186.865
			c8.975,34.606,26.629,4.162,33.096,1.756c6.473-2.408,83.057-167.25,83.057-167.25L1405.133,571.602z"/>
		<path style="fill:#467EB3;" d="M1422.713,735.205c-28.445,8.645-77.564-34.145-77.564-34.145l40.715-135.887
			c0,0,5.965-27.949,43.875-25.875c0,0,43.08,3.082,44.475,49.014L1422.713,735.205z"/>
	</g>
	<path style="fill:#F7A483;" d="M1499.441,443.77v65.271h69.02c0,0-16.973-25.873-8.482-65.271H1499.441z"/>
	<path style="fill:#E1876F;" d="M1534.459,499.195c6.217,4.004,19.436,12.521,26.982,7.535c2.029-1.34,2.969-3.096,3.277-5.057
		c-4.443-10.342-10.547-30.957-4.74-57.904h-60.537v5.918C1506.994,468.793,1516.684,487.738,1534.459,499.195z"/>
	<g>
		<path style="fill:#F8A07D;" d="M1498.529,445.307c0,0-11.811-4.955-25.471-33.857c0,0-29.307-34.016-9.328-73.297
			c0,0,11.682-33.16,70.389-24.656C1534.119,313.496,1540.494,401.881,1498.529,445.307z"/>
		<path style="fill:#F7A483;" d="M1570.914,462.051l3.777-10.277c0,0,10.307-38.209,10.307-38.217
			c1.293-4.803,1.293-11.213,0.365-16.123c-1.014-5.338-1.689-10.926-0.365-16.592c6.459-27.471-7.768-42.834-7.768-42.834
			c-15.789-25.633-53.861-26.016-53.861-26.016c-47.113,1.816-51.564,47.342-51.564,47.342
			c-7.967,30.223,15.877,55.717,15.922,55.771c1.908,2.027,0.811,12,1.357,14.84c2.357,12.121,13.85,19.682,24.049,24.91
			c11.205,5.746,24.77,11.875,37.363,13.166C1555.266,468.512,1568.744,467.949,1570.914,462.051z"/>
	</g>
	<path style="fill:#E98B6F;" d="M1560.982,404.645l-13.066,4.154c0,0,17.156,2.115,18.119-2.844c0,0-2.01-9.92-4.266-19.336
		C1561.77,386.619,1562.922,404.029,1560.982,404.645z"/>
	<g>
		<path style="fill:#3C2415;" d="M1539.807,385.279c-0.164,2.695-1.789,4.783-3.613,4.674c-1.832-0.113-3.184-2.383-3.014-5.08
			c0.162-2.693,1.779-4.789,3.607-4.676C1538.615,380.309,1539.973,382.586,1539.807,385.279z"/>
		<path style="fill:#3C2415;" d="M1576.865,383.434c-0.162,2.699-1.785,4.785-3.613,4.674s-3.18-2.381-3.014-5.076
			c0.166-2.697,1.783-4.793,3.607-4.682C1575.678,378.461,1577.031,380.738,1576.865,383.434z"/>
		<path style="fill:#3C2415;" d="M1543.82,376.105c1.17,0.332,1.574-1.248,1.574-1.248c0.486-1.521,0.119-2.869,0.119-2.869
			c-0.406-1.129-1.314-1.535-1.314-1.535c-3.043-0.643-9.057-0.297-14.223,0.859c-2.852,0.639-7.529,2.404-8.002,4.961
			c-0.143,0.766-0.309,2.092,0.551,2.387C1522.525,378.66,1532.359,376.348,1543.82,376.105z"/>
		<path style="fill:#3C2415;" d="M1585.947,374.379c-3.352-0.143-9.27-0.191-16.561,0.721c-1.115,0.494-1.736-1.006-1.746-1.006
			c-0.693-1.441-0.523-2.818-0.523-2.82c0.229-1.174,1.074-1.713,1.074-1.713c2.914-1.08,7.043-1.558,12.313-1.164
			c1.578,0.119,4.295,0.496,6.084,1.201C1586.588,369.598,1586.879,370.602,1585.947,374.379z"/>
	</g>
	<g>
		<path style="fill:#FFFFFF;" d="M1568.521,423.377c1.045,0.057,1.578,0.578,1.135,1.303c0,0-5.113,8.348-13.211,8.828
			c-8.105,0.48-14.223-7.197-14.223-7.197c-0.594-0.746,0.008-1.42,1.318-1.51C1543.541,424.801,1557.523,423.879,1568.521,423.377z
			"/>
	</g>
	<path style="fill:#467EB3;" d="M1549.787,533.559c-59.078,9.184-65.045-36.414-65.045-36.414l-89.082,52.647
		c5.814,19.275,11.594,38.561,17.414,57.838c10.732,35.537,21.172,71.174,32.225,106.613c0,0,3.607,32.621,1.834,50.342
		c0.143,6.711-17.941,127.145-13.66,128.041c0.029,0.006,138.395-0.734,200.52-27.578l-3.889-115.537l28.65-175.115
		c0,0,11.361-30.285-11.354-45.428l-86.588-40.693C1560.813,488.273,1599.236,524.769,1549.787,533.559z"/>
	<path style="fill:#3C2415;" d="M1578.752,339.959c0,0,21.529-18.482,11.813-34.137c0,0-16.785-19.012-48.346-14.662
		c-31.551,4.348-31.059-4.406-55.842,7.885c-24.785,12.295-29.1,9.76-34.873,33.641c-5.451,22.57-2.414,31.018,1.359,44.635
		c3.766,13.615,8.236,41.516,34.271,57.563c0,0-17.385-40.129,12.02-30.641l3.217-0.228c0,0-6.684-20.623,6.496-31.012
		c-6.408-8.035-1.486-24.301-0.236-26.633c6.307-11.736,24.99-7.002,35.852-10.227
		C1552.877,333.65,1573.795,329.83,1578.752,339.959z"/>
	<g>
		<g>
			<g>
				<g>
					<g>
						<g>
							<path style="fill:#F7A483;" d="M1494.84,419.453c-1.648,1.434-3.824,2.33-6.6,2.453c-7.51,0.334-14.152-6.316-14.832-14.853
								c-0.686-8.518,4.842-15.701,12.342-16.029c3.557-0.154,6.926,1.258,9.547,3.693c3.824,3.557,4.35,10.496,3.783,15.342
								C1498.623,413.928,1497.316,417.303,1494.84,419.453z"/>
						</g>
					</g>
				</g>
			</g>
		</g>
		<g>
			<g>
				<path style="fill:#E98B6F;" d="M1489.25,398.789c-0.707-4.455-9.514,0.363-7.996,2.801c0.885,1.412,2.529,2.375,3.84,3.322
					c1.795,1.305,2.699,2.523,3.074,4.732c0.047,0.26,0.143,1.037-0.107,1.236c-1.125,0.883-5.223-3.271-6.129-4.145
					c-1.76-1.713-2.176-4.809-1.51-7.098c0.709-2.441,2.213-3.666,4.783-3.658c2.037-0.002,4.119,0.014,4.148,2.555
					C1489.352,398.59,1489.287,399.016,1489.25,398.789L1489.25,398.789z"/>
			</g>
			<g>
				<path style="fill:#E98B6F;" d="M1486.627,403.611c0.887-1.006,1.828-0.273,2.838,0.369c0.939,0.6,1.49,1.502,1.785,2.547
					c0.654,2.297,0.52,5.432-0.693,7.545c-0.98,1.705-2.736,2.816-4.713,2.881c-2.732,0.078-3.686-2.283-3.932-4.588
					c-0.061-0.617-0.203-2.082,0.385-2.498c0.629-0.441,1.152,0.539,1.615,0.949c0.641,0.543,1.543,0.713,2.361,0.734
					c1.564,0.045,3.043-0.834,3.959-2.051c0.152-0.215,0.293-0.473,0.369-0.727c0.086,1.512,0.025,1.854-0.18,1.029
					c-0.148-0.381-0.342-0.721-0.582-1.031c-0.688-1.014-1.807-1.666-2.563-2.619
					C1486.912,405.713,1486.182,404.123,1486.627,403.611L1486.627,403.611z"/>
			</g>
		</g>
	</g>
	<path style="fill:#EF7743;" d="M1467.869,506.41l-72.209,43.381l45.018,167.383l-5.736,139.746c0,0,106.008,2.729,202.381-8.219
		l-5.01-96.479l31.59-192.764c0,0,0.764-22.375-16.502-30.492l-56.008-26.32l-37.16,86.551L1467.869,506.41z"/>
	<polygon style="fill:#FFF200;" points="1635.201,807.809 1436.955,807.809 1438.266,775.875 1633.543,775.875 	"/>
	<polygon style="fill:#FFF200;" points="1636.332,727.685 1440.246,727.685 1440.678,717.174 1434.455,694.035 1641.846,694.035 
		1638.055,717.43 	"/>
	<g>
		<path style="fill:#3F200D;" d="M1431.891,871.875h202.09c3.342,0,3.342-4.594,3.342-4.594v-18.58
			c-0.418-6.68-4.107-6.734-4.107-6.734h-197.148c0,0-5.01-0.363-5.43,6.316l-1.451,17.117
			C1429.186,865.4,1428.375,871.875,1431.891,871.875z"/>
		<g>
			<path style="fill:#000C31;" d="M1590.648,812.09c0,1.145-0.926,2.07-2.07,2.07l0,0c-1.145,0-2.074-0.926-2.074-2.07v-44.889
				c0-1.146,0.93-2.076,2.074-2.076l0,0c1.145,0,2.07,0.93,2.07,2.076V812.09z"/>
			<rect x="1584.434" y="805.871" style="fill:#001D41;" width="8.289" height="12.978"/>
			<path style="fill:#001D41;" d="M1622.709,831.832v-10.601c0-3.902-3.166-7.07-7.068-7.07h-27.086
				c-3.902,0-7.064,3.168-7.064,7.07v10.601H1622.709z"/>
			<path style="fill:#002D54;" d="M1622.709,891.178c0,3.902-3.166,7.065-7.068,7.065h-27.086c-3.902,0-7.064-3.162-7.064-7.065
				v-65.26c0-3.902,3.162-7.068,7.064-7.068h27.086c3.902,0,7.068,3.166,7.068,7.068V891.178z"/>
			<rect x="1587.764" y="826.065" style="fill:#03406D;" width="28.668" height="24.879"/>
			<g>
				<path style="fill:#000C31;" d="M1594.945,863.088c0,0.762-0.617,1.375-1.377,1.375h-4.643c-0.76,0-1.375-0.613-1.375-1.375
					v-4.643c0-0.758,0.615-1.375,1.375-1.375h4.643c0.76,0,1.377,0.617,1.377,1.375V863.088z"/>
				<path style="fill:#000C31;" d="M1605.791,863.088c0,0.762-0.611,1.375-1.373,1.375h-4.641c-0.758,0-1.371-0.613-1.371-1.375
					v-4.643c0-0.758,0.613-1.375,1.371-1.375h4.641c0.762,0,1.373,0.617,1.373,1.375V863.088z"/>
				<path style="fill:#000C31;" d="M1616.645,863.088c0,0.762-0.615,1.375-1.375,1.375h-4.643c-0.76,0-1.373-0.613-1.373-1.375
					v-4.643c0-0.758,0.613-1.375,1.373-1.375h4.643c0.76,0,1.375,0.617,1.375,1.375V863.088z"/>
			</g>
			<g>
				<path style="fill:#000C31;" d="M1594.945,874.174c0,0.76-0.617,1.375-1.377,1.375h-4.643c-0.76,0-1.375-0.615-1.375-1.375
					v-4.639c0-0.76,0.615-1.375,1.375-1.375h4.643c0.76,0,1.377,0.615,1.377,1.375V874.174z"/>
				<path style="fill:#000C31;" d="M1605.791,874.174c0,0.76-0.611,1.375-1.373,1.375h-4.641c-0.758,0-1.371-0.615-1.371-1.375
					v-4.639c0-0.76,0.613-1.375,1.371-1.375h4.641c0.762,0,1.373,0.615,1.373,1.375V874.174z"/>
				<path style="fill:#000C31;" d="M1616.645,874.174c0,0.76-0.615,1.375-1.375,1.375h-4.643c-0.76,0-1.373-0.615-1.373-1.375
					v-4.639c0-0.76,0.613-1.375,1.373-1.375h4.643c0.76,0,1.375,0.615,1.375,1.375V874.174z"/>
			</g>
			<g>
				<path style="fill:#000C31;" d="M1594.945,885.264c0,0.756-0.617,1.375-1.377,1.375h-4.643c-0.76,0-1.375-0.619-1.375-1.375
					v-4.643c0-0.758,0.615-1.375,1.375-1.375h4.643c0.76,0,1.377,0.617,1.377,1.375V885.264z"/>
				<path style="fill:#000C31;" d="M1605.791,885.264c0,0.756-0.611,1.375-1.373,1.375h-4.641c-0.758,0-1.371-0.619-1.371-1.375
					v-4.643c0-0.758,0.613-1.375,1.371-1.375h4.641c0.762,0,1.373,0.617,1.373,1.375V885.264z"/>
				<path style="fill:#000C31;" d="M1616.645,885.264c0,0.756-0.615,1.375-1.375,1.375h-4.643c-0.76,0-1.373-0.619-1.373-1.375
					v-4.643c0-0.758,0.613-1.375,1.373-1.375h4.643c0.76,0,1.375,0.617,1.375,1.375V885.264z"/>
			</g>
		</g>
		<rect x="1575.529" y="870.205" style="fill:#2F1100;" width="51.705" height="31.166"/>
	</g>
	<g>
		<path style="fill:#00B9C5;" d="M1594.92,337.334c0.428-3.012,0.672-6.078,0.672-9.195c0-38.854-34.184-70.35-76.354-70.35
			s-76.355,31.496-76.355,70.35c0,3.117,0.248,6.184,0.674,9.195c0,0,0.158,30.348,104.453,27.588
			C1548.01,364.922,1626.025,359.617,1594.92,337.334z"/>
		<path style="fill:#00A3B0;" d="M1594.92,337.334c0.428-3.012,0.672-6.078,0.672-9.195c0-5.758-0.768-11.348-2.186-16.705
			c-0.605,4.506-1.93,9.215-6.277,12.221c-4.426,3.063-9.908,4.846-15.742,4.6c-5.145-0.223-10.641-1.623-13.561-5.434
			c-3.377-4.404-4.195-9.842-4.824-14.938c-1.688-13.633-5.506-26.885-9.197-40.227c-1.477-2.35-2.809-4.746-3.855-7.234
			c-6.588-1.707-13.533-2.633-20.711-2.633c-4.379,0-8.672,0.359-12.848,1.014c5.273,6.301,8.385,13.982,10.236,21.521
			c1.723,7.041,2.645,14.191,3.293,21.352c0.582,6.381,1.643,13.025-0.355,19.318c-1.811,5.705-6.072,10.381-13.279,11.748
			c-7.732,1.465-16.127,0.254-23.275-2.475c-7.334-2.799-13.418-6.936-16.516-13.27c-3.355-6.873-3.551-14.432-1.189-21.558
			c4.055-12.217,13.199-23.248,24.232-32.129c-27.414,10.676-46.654,35.682-46.654,64.828c0,3.117,0.248,6.184,0.674,9.195
			c0,0,0.121,23.166,69.725,27.176c-1.426-1.156-2.473-2.537-2.877-4.223c-2.836-11.836,17.072-12.445,26.326-13.047
			c9.725-0.631,19.455-2.113,29.133-3.158c10.469-1.129,20.973-2.455,30.984-5.264C1596.254,338.33,1595.625,337.84,1594.92,337.334
			z"/>
		<path style="fill:#00A6B7;" d="M1550.227,343.902c9.959-55.307-10.514-84.352-10.514-84.352
			c-2.777-4.863-13.213-5.899-13.213-5.899h-12.15c-15.955,0.459-10.783,7.621-10.783,7.621s25.701,20.988,22.346,84.389
			L1550.227,343.902z"/>
		<g>
			<path style="fill:#00727A;" d="M1502.197,259.551c0,0,1.031,1.002,2.633,2.943c1.533,1.977,3.838,4.77,6.066,8.471
				c1.195,1.805,2.277,3.881,3.531,6.023c1.094,2.217,2.426,4.488,3.432,7.002c1.088,2.48,2.205,5.049,3.094,7.754
				c1.018,2.66,1.781,5.449,2.592,8.223c0.848,2.768,1.283,5.637,1.932,8.406c0.598,2.781,0.822,5.584,1.23,8.258
				c0.379,2.678,0.367,5.311,0.529,7.779c0.197,2.471,0.037,4.816,0.018,6.973c-0.068,2.158-0.023,4.135-0.291,5.875
				c-0.201,1.738-0.381,3.256-0.529,4.504c-0.332,2.482-0.521,3.9-0.521,3.9s-0.023-1.432-0.066-3.939
				c-0.004-1.248-0.004-2.762-0.008-4.498c0.049-1.734-0.232-3.689-0.287-5.816c-0.135-2.125-0.141-4.43-0.516-6.846
				c-0.338-2.414-0.537-4.971-0.971-7.586c-0.479-2.605-0.863-5.316-1.451-8.033c-0.67-2.697-1.129-5.49-1.986-8.186
				c-0.758-2.717-1.467-5.451-2.434-8.063c-0.854-2.645-1.791-5.213-2.783-7.672c-0.93-2.484-2.031-4.799-2.949-7.057
				c-1.078-2.178-1.99-4.303-3.033-6.158C1505.535,264.23,1502.197,259.551,1502.197,259.551z"/>
		</g>
		<g>
			<path style="fill:#00727A;" d="M1539.713,259.551c0,0,0.875,1.045,2.162,3.064c1.242,2.035,2.963,5.004,4.598,8.779
				c0.732,1.914,1.648,3.957,2.361,6.201c0.805,2.217,1.527,4.598,2.145,7.096c0.693,2.48,1.146,5.103,1.693,7.748
				c0.379,2.672,0.811,5.385,1.102,8.111c0.162,2.736,0.465,5.467,0.5,8.164c0.029,2.695,0.08,5.352-0.023,7.912
				c-0.125,2.563-0.322,5.035-0.498,7.375c-0.297,2.328-0.58,4.527-0.84,6.558c-0.424,4.068-1.41,7.365-1.838,9.703
				c-0.537,2.314-0.848,3.639-0.848,3.639s0.098-1.357,0.266-3.732c0.186-2.369,0.574-5.728,0.727-9.781
				c0.102-2.022,0.213-4.207,0.332-6.522c-0.008-2.32-0.027-4.758,0.033-7.277c0.027-2.52-0.203-5.117-0.23-7.76
				c-0.066-2.641-0.404-5.305-0.59-7.98c-0.248-2.668-0.637-5.32-0.971-7.938c-0.527-2.58-0.801-5.178-1.402-7.615
				c-0.543-2.453-1.033-4.834-1.658-7.057c-0.529-2.252-1.266-4.303-1.844-6.238c-0.721-1.879-1.258-3.66-1.883-5.178
				c-0.574-1.543-1.168-2.846-1.645-3.93C1540.369,260.748,1539.713,259.551,1539.713,259.551z"/>
		</g>
		<g>
			<path style="fill:#00727A;" d="M1462.98,340.859c0,0,2.057,0.326,5.668,0.709c1.811,0.188,3.977,0.545,6.504,0.711
				c2.52,0.195,5.361,0.416,8.449,0.729c3.084,0.348,6.463,0.369,10.01,0.588c3.557,0.109,7.285,0.482,11.168,0.461
				c3.877,0.053,7.881,0.105,11.951,0.158c4.07,0.156,8.199-0.104,12.33-0.297c4.133-0.125,8.264-0.248,12.334-0.371
				c4.072-0.086,8.041-0.703,11.902-1.012c3.854-0.406,7.594-0.689,11.145-0.977c3.561-0.18,6.867-0.795,9.932-1.281
				c6.129-1,11.279-1.648,14.875-2.189c3.611-0.48,5.672-0.754,5.672-0.754s-2.021,0.482-5.551,1.33
				c-3.551,0.781-8.605,2.023-14.719,3.295c-3.057,0.643-6.357,1.428-9.922,1.789c-3.547,0.467-7.291,0.979-11.172,1.4
				c-3.889,0.375-7.885,1.061-11.986,1.217c-4.098,0.189-8.26,0.383-12.424,0.574c-4.166,0.127-8.332,0.318-12.432,0.094
				c-4.102-0.123-8.139-0.242-12.045-0.357c-3.908,0.01-7.658-0.607-11.225-0.891c-3.557-0.395-6.936-0.586-10.023-1.09
				c-3.094-0.434-5.922-0.897-8.422-1.305c-2.506-0.373-4.666-0.912-6.453-1.244C1464.977,341.443,1462.98,340.859,1462.98,340.859z
				"/>
		</g>
	</g>
	<path style="fill:#FEBE10;" d="M1365.398,900.586l3.479,17.732l0.383,16.293c0,0-0.693,17.236,6.982,35.303l2.621,5.881
		c0,0,8.223,1.697,5.047-10.039l-1.547-8.709c0,0,3.52,23.353,13.229,27.252c0,0,1.824,1.279,3.125-2.459
		c0,0-7.252-18.902-8.375-28.1c0,0,3.734,24.252,14.967,30.896c0,0,5.459,1.547,4.695-3.898c0,0-8.078-18.986-11.256-30.895
		c0,0,6.418,23.01,13.621,26.496c0,0,9.613,3.99,6.137-6.967c0,0-9.334-13.961-13.711-31.433c0,0,6.01,13.935,13.711,6.592
		l-8.793-18.139l-14.053-17.59l-2.393-14.363L1365.398,900.586z"/>
	<path style="fill:#FAA21B;" d="M1649.336,936.324l-12.014,30.205c0,0,4.459,5.016,8.848,3.158c0,0-4.693,6.865,6.645,5.625
		l12.902-33.809C1665.717,941.504,1656.619,925.502,1649.336,936.324z"/>
	<path style="fill:#FEBE10;" d="M1650.361,892.625l-8.516,25.707l-4.523,37.58c0,0,13.037,0.514,17.168-18.742l4.129,6.215
		c0,0-15.52,23.381-3.584,34.654c0,0,3.275,0.49,6.559-5.186l13.346-31.975l-3.795-48.254l3.795-17.076h-24.578V892.625z"/>
</g>
<g>
	<g>
		<g>
			<path style="fill:#E59375;" d="M2177.201,570.291l-10.711,6.019c0,0,14.617,158.916,36.254,187.381
				c21.637,28.469,30.906-9.107,35.947-13.826c5.041-4.713,7.371-183.664,7.371-183.664L2177.201,570.291z"/>
			<path style="fill:#D3D3EA;" d="M2257.43,699.385c-30.379,24.019-82.313,14.82-82.313,14.82l-18.174-142.408
				c0,0-5.281-28.084,30.494-40.799c0,0,40.93-13.775,59.936,28.057L2257.43,699.385z"/>
			<g>
				<g>
					<path style="fill:#CA8268;" d="M2225.617,944.301l1.924,16.975l-10.598,22.07c0,0,4.029,3.865,8.885-3.33l9.391-18.168
						l-0.574-19.07L2225.617,944.301z"/>
					<path style="fill:#CA8268;" d="M2229.926,950.162l2.863,16.848l-9.344,22.629c0,0,4.232,3.625,8.68-3.826l8.367-18.672
						l-1.648-18.998L2229.926,950.162z"/>
					<path style="fill:#E59375;" d="M2248.674,954.561l-2.381-19.742l-2.531-24.486l-15.174-2.635l-6.121,25.516l-1.74,13.449
						l-2.162,18.371l-1.02,5.926c0,0,4.715,1.705,8.76-7.639l4.488-17.24l6.139,13.883l-6.426,23.795c0,0,1.008,12.57,4.922,7.973
						l13.768-33.231L2248.674,954.561z"/>
				</g>
				<path style="fill:#E59375;" d="M2194.566,746.273c0,0,31.838,130.432,34.021,161.424c0,0,12.57,16.01,15.174,2.635
					c5.207-26.701,3.943-167.496-2.539-178.861C2234.742,720.111,2194.566,746.273,2194.566,746.273z"/>
			</g>
		</g>
	</g>
	<path style="fill:#000001;" d="M2164.023,1442.418c0,0,6.588,24.764,14.479,31.432c7.889,6.662,37.873,16.307,37.873,16.307
		l16.584,2.242c0,0,11.58,8.156-19.941,17.107c-31.52,8.949-87.197-16.783-87.197-16.783l12.066-50.838L2164.023,1442.418z"/>
	<path style="fill:#000001;" d="M2056.938,1496.135c-5.834-8.52-18.934-55.514-18.934-55.514l-25.824-0.01l-14.594,52.6
		c0,0-2.33,8.807,3.037,11.918c0,0,32.512,10.209,59.652-2.318C2060.275,1502.811,2059.918,1500.486,2056.938,1496.135z"/>
	<path style="fill:#F7A483;" d="M2207.984,779.961l32.967-201.479c0,0,11.357-30.285-11.354-45.428l-86.59-40.693h-61.061
		l-104.096,61.516l68.229,226.084H2207.984z"/>
	<path style="fill:#002044;" d="M2046.08,779.961c0,0-18.697,42.691-23.207,140.83c0,0,140.721,44.145,184.861,0l0.25-140.83
		H2046.08z"/>
	<path style="fill:#002044;" d="M2138.336,920.791c0,32.936-25.85,59.637-57.734,59.637c-31.883,0-57.729-26.701-57.729-59.637
		c0-32.934,25.846-59.627,57.729-59.627C2112.486,861.164,2138.336,887.857,2138.336,920.791z"/>
	<path style="fill:#002044;" d="M2207.734,926.234c0,32.934-14.49,59.631-46.373,59.631s-57.727-26.697-57.727-59.631
		s25.844-59.633,57.727-59.633S2207.734,893.301,2207.734,926.234z"/>
	<path style="fill:#002044;" d="M2022.873,928.051l-12.301,247.961c0,0,21.766,68.141,70.029,28.391l42.701-273.367
		C2123.303,931.035,2109.941,859.914,2022.873,928.051z"/>
	<path style="fill:#002044;" d="M2010.572,1176.012c0,0-19.248,40.842-17.775,101.281l8.311,183.055h43.533l35.961-255.945
		C2080.602,1204.402,2047.479,1117.332,2010.572,1176.012z"/>
	<path style="fill:#002044;" d="M2117.746,947.176l3.551,228.203c0,0,58.047,51.738,73.191,13.885c0,0,16.4-175.258,13.246-263.029
		C2207.734,926.234,2137.934,867.676,2117.746,947.176z"/>
	<path style="fill:#002044;" d="M2121.297,1175.379c0,0-17.662,27.736-8.986,105.309l15.299,179.66h46.688l20.191-271.084
		C2194.488,1189.264,2164.111,1130.693,2121.297,1175.379z"/>
	<g>
		<path style="fill:#F7A483;" d="M1978.408,752.91c-11.287,113.176-6.658,120.664-5.482,166.055c0,0-6.023,15.971-16.279,7.002
			c-10.264-8.961-26.631-159.676-21.473-171.697C1942.844,736.43,1978.408,752.91,1978.408,752.91z"/>
		<path style="fill:#F7A483;" d="M1971.26,914.451l15.918,15.914l13.523,19.816c-6.691,4.504-13.709-6.588-13.709-6.588
			c4.375,17.469,12.867,32.885,12.867,32.885c2.055,6.256-3.857,5.797-3.857,5.797c-6.602-6.781-15.057-26.779-15.057-26.779
			c3.176,11.908,11.256,30.897,11.256,30.897c0.76,5.443-4.699,3.896-4.699,3.896c-11.232-6.646-14.959-30.898-14.959-30.898
			c1.119,9.199,8.369,28.1,8.369,28.1c-1.305,3.74-3.125,2.463-3.125,2.463c-9.705-3.9-13.227-27.252-13.227-27.252l1.549,8.707
			c3.172,11.734-4.102,8.709-4.102,8.709l-2.621-5.883c-7.676-18.063-5.359-34.318-5.359-34.318l0.049-21.121L1971.26,914.451z"/>
		<g>
			<path style="fill:#F7A483;" d="M1987.33,577.256l-12.201,1.42c0,0-47.822,152.254-38.84,186.865
				c8.977,34.606,26.623,4.162,33.096,1.756c6.473-2.41,83.053-167.252,83.053-167.252L1987.33,577.256z"/>
			<path style="fill:#D3D3EA;" d="M2004.91,740.859c-28.443,8.643-77.57-34.146-77.57-34.146l40.721-135.885
				c0,0,5.967-27.949,43.877-25.875c0,0,43.074,3.082,44.471,49.014L2004.91,740.859z"/>
		</g>
	</g>
	<path style="fill:#F7A483;" d="M2081.639,447.857v65.272h69.021c0,0-16.973-25.873-8.486-65.272H2081.639z"/>
	<path style="fill:#E1876F;" d="M2116.654,503.283c6.217,4.004,19.441,12.521,26.982,7.535c2.029-1.34,2.969-3.098,3.275-5.057
		c-4.438-10.342-10.543-30.957-4.738-57.904h-60.535v5.918C2089.193,472.881,2098.879,491.826,2116.654,503.283z"/>
	<g>
		<path style="fill:#F8A07D;" d="M2080.988,449.287c0,0-11.861-4.828-25.824-33.586c0,0-29.664-33.705-10.1-73.195
			c0,0,11.33-33.277,70.121-25.396C2115.186,317.109,2122.496,405.424,2080.988,449.287z"/>
		<path style="fill:#F7A483;" d="M2153.545,465.272l3.672-10.316c0,0,9.9-38.316,9.9-38.322c1.248-4.818,1.18-11.229,0.197-16.127
			c-1.072-5.328-1.805-10.908-0.541-16.586c6.172-27.539-8.217-42.756-8.217-42.756c-16.059-25.463-54.135-25.441-54.135-25.441
			c-47.088,2.311-51.061,47.881-51.061,47.881c-7.646,30.305,16.461,55.549,16.512,55.6c1.922,2.012,0.932,11.992,1.51,14.828
			c2.486,12.094,14.057,19.533,24.311,24.654c11.27,5.625,24.893,11.611,37.498,12.772
			C2137.967,471.895,2151.443,471.19,2153.545,465.272z"/>
	</g>
	<path style="fill:#E98B6F;" d="M2143.008,407.973l-13.016,4.291c0,0,17.174,1.935,18.086-3.035c0,0-2.115-9.9-4.469-19.289
		C2143.609,389.94,2144.939,407.336,2143.008,407.973z"/>
	<g>
		<path style="fill:#3C2415;" d="M2121.633,388.83c-0.135,2.699-1.738,4.803-3.566,4.711c-1.828-0.094-3.203-2.348-3.068-5.045
			c0.137-2.693,1.73-4.805,3.559-4.713C2120.387,383.871,2121.77,386.135,2121.633,388.83z"/>
		<path style="fill:#3C2415;" d="M2158.672,386.598c-0.139,2.697-1.74,4.803-3.566,4.709c-1.828-0.092-3.203-2.346-3.068-5.045
			c0.135-2.697,1.73-4.809,3.559-4.715C2157.43,381.635,2158.807,383.898,2158.672,386.598z"/>
		<path style="fill:#0F4767;" d="M2125.566,379.529c1.178,0.309,1.551-1.279,1.551-1.279c0.451-1.529,0.064-2.867,0.064-2.867
			c-0.43-1.123-1.342-1.512-1.342-1.512c-3.061-0.588-9.066-0.125-14.205,1.129c-2.842,0.691-7.486,2.549-7.912,5.111
			c-0.121,0.77-0.264,2.098,0.594,2.373C2104.316,382.484,2114.111,379.99,2125.566,379.529z"/>
		<path style="fill:#0F4767;" d="M2167.654,377.447c-3.354-0.111-9.27-0.096-16.549,0.893c-1.107,0.508-1.75-0.988-1.758-0.988
			c-0.709-1.434-0.557-2.811-0.557-2.814c0.219-1.176,1.057-1.725,1.057-1.725c2.906-1.109,7.027-1.631,12.301-1.293
			c1.58,0.103,4.301,0.453,6.094,1.139C2168.242,372.658,2168.547,373.658,2167.654,377.447z"/>
	</g>
	<g>
		<path style="fill:#FFFFFF;" d="M2152.643,423.281c1.047,0.096,1.604,0.859,1.191,1.898c0,0-4.783,11.998-12.877,12.568
			c-8.098,0.572-14.537-10.617-14.537-10.617c-0.625-1.086-0.053-2.053,1.258-2.164
			C2127.678,424.967,2141.646,423.842,2152.643,423.281z"/>
	</g>
	<path style="fill:#D3D3EA;" d="M2034.871,774.488c0.143,6.711-10.047,76.938-5.766,77.836c0.027,0.004,116.506,26.846,178.629,0
		l0.25-72.363l32.967-201.479c0,0,11.357-30.285-11.354-45.428l-86.59-40.693l5.848,17.549l-12.52,35.603l-54.389-53.152
		l-104.096,61.516c5.816,19.277,11.6,38.563,17.42,57.84c10.73,35.535,21.168,71.174,32.223,106.611
		C2027.494,718.328,2036.648,756.768,2034.871,774.488z"/>
	<polygon style="fill:#9398CC;" points="2128.822,505.029 2128.1,537.467 2116.15,525.783 	"/>
	<path style="fill:#B1B7DC;" d="M2161.074,505.949c0,0-3.514-13.588-20.729-25.064l2.25,46.828
		C2142.596,527.713,2152.148,503.758,2161.074,505.949z"/>
	<path style="fill:#9398CC;" d="M2162.639,527.713l-1.564-21.764c-5.256-1.291-9.953,6.07-13.787,12.103L2162.639,527.713z"/>
	<g>
		<path style="fill:#CFEAE6;" d="M2144.035,557.338c0,2.555-2.074,4.627-4.629,4.627c-2.557,0-4.629-2.072-4.629-4.627
			s2.072-4.627,4.629-4.627C2141.961,552.711,2144.035,554.783,2144.035,557.338z"/>
	</g>
	<g>
		<path style="fill:#CFEAE6;" d="M2144.035,641.385c0,2.555-2.074,4.627-4.629,4.627c-2.557,0-4.629-2.072-4.629-4.627
			c0-2.555,2.072-4.629,4.629-4.629C2141.961,636.756,2144.035,638.83,2144.035,641.385z"/>
	</g>
	<g>
		<path style="fill:#CFEAE6;" d="M2144.035,725.432c0,2.557-2.074,4.629-4.629,4.629c-2.557,0-4.629-2.072-4.629-4.629
			c0-2.555,2.072-4.627,4.629-4.627C2141.961,720.805,2144.035,722.877,2144.035,725.432z"/>
	</g>
	<g>
		<path style="fill:#CFEAE6;" d="M2144.035,809.481c0,2.555-2.074,4.627-4.629,4.627c-2.557,0-4.629-2.072-4.629-4.627
			c0-2.557,2.072-4.631,4.629-4.631C2141.961,804.85,2144.035,806.924,2144.035,809.481z"/>
	</g>
	
		<line style="fill:none;stroke:#BEBCDE;stroke-width:2.5053;stroke-miterlimit:10;" x1="2128.822" y1="541.16" x2="2128.822" y2="860.139"/>
	<g>
		<path style="fill:#471F08;" d="M2207.021,858.971c0,0-59.5,27.871-181.258-0.619c-2.006-0.471-1.158-5.67-1.158-5.67l1.158-11.719
			c0.531-3.756,2.625-3.578,2.625-3.578c0.027,0.004,116.508,26.846,178.633,0c0,0,2.506-0.438,2.611,3.32v14.613
			C2209.633,855.318,2209.633,858.242,2207.021,858.971z"/>
		<g>
			<path style="fill:none;stroke:#BCBEC0;stroke-width:4.0986;stroke-miterlimit:10;" d="M2146.582,867.815
				c0,1.857-1.473,3.361-3.283,3.361H2119.6c-1.814,0-3.283-1.504-3.283-3.361v-17.067c0-1.857,1.469-3.365,3.283-3.365h23.699
				c1.811,0,3.283,1.508,3.283,3.365V867.815z"/>
			
				<line style="fill:none;stroke:#BCBEC0;stroke-width:4.0986;stroke-miterlimit:10;" x1="2116.316" y1="858.205" x2="2128.855" y2="858.205"/>
		</g>
	</g>
	<path style="fill:#B1B7DC;" d="M2128.822,504.297c0,0-38.193-14.832-47.184-29.607l-11.289,21.512l40.268,38.615l18.205-29.787"/>
	<path style="fill:#0F4767;" d="M2069.488,438.986c0,0-17.807-39.943,11.691-30.766l3.219-0.26c0,0-6.904-20.555,6.166-31.08
		c-6.492-7.965-1.742-24.285-0.514-26.629c6.18-11.801,24.914-7.266,35.742-10.604c8.367-2.582,29.24-6.619,34.309,3.455
		c0,0,17.873-9.162,5.631-27.201c0,0,6.75-16.371-18.82-17.205c0,0-3.854-16.701-22.643-9.186c0,0-15.871-16.285-27.145,0.418
		c0,0-32.105-13.736-41.73,11.504c0,0-21.736,1.857-20.482,23.15c0,0-17.955,21.535-5.844,53.863
		C2029.068,378.447,2038.389,407.961,2069.488,438.986z"/>
	<g>
		<g>
			<g>
				<g>
					<g>
						<g>
							<path style="fill:#F7A483;" d="M2077.027,423.477c-1.631,1.451-3.799,2.371-6.576,2.523
								c-7.504,0.41-14.217-6.17-14.986-14.697c-0.773-8.51,4.676-15.75,12.176-16.16c3.553-0.19,6.938,1.188,9.584,3.592
								c3.861,3.518,4.459,10.451,3.941,15.303C2080.75,417.914,2079.48,421.303,2077.027,423.477z"/>
						</g>
					</g>
				</g>
			</g>
		</g>
		<g>
			<g>
				<path style="fill:#E98B6F;" d="M2071.221,402.873c-0.756-4.449-9.51,0.461-7.969,2.887c0.904,1.398,2.555,2.348,3.879,3.279
					c1.807,1.285,2.725,2.494,3.121,4.701c0.053,0.258,0.152,1.033-0.092,1.234c-1.121,0.895-5.256-3.217-6.172-4.076
					c-1.781-1.695-2.23-4.787-1.588-7.086c0.682-2.449,2.172-3.688,4.746-3.707c2.033-0.025,4.119-0.027,4.176,2.512
					C2071.318,402.674,2071.262,403.1,2071.221,402.873L2071.221,402.873z"/>
			</g>
			<g>
				<path style="fill:#E98B6F;" d="M2068.646,407.723c0.879-1.014,1.828-0.295,2.846,0.338c0.941,0.59,1.506,1.486,1.811,2.531
					c0.678,2.289,0.576,5.426-0.611,7.549c-0.967,1.717-2.707,2.846-4.686,2.932c-2.734,0.105-3.713-2.246-3.977-4.549
					c-0.072-0.615-0.227-2.078,0.357-2.5c0.621-0.447,1.156,0.525,1.619,0.934c0.65,0.537,1.557,0.693,2.371,0.709
					c1.566,0.029,3.037-0.871,3.941-2.094c0.152-0.217,0.285-0.477,0.355-0.727c0.104,1.506,0.051,1.852-0.17,1.027
					c-0.148-0.377-0.344-0.715-0.588-1.027c-0.699-1.002-1.824-1.647-2.594-2.59C2068.951,409.82,2068.211,408.24,2068.646,407.723
					L2068.646,407.723z"/>
			</g>
		</g>
	</g>
	<path style="fill:#D99275;" d="M2160.834,432.424c-0.83,4.854-2.543,11.248-5.479,15.434c-5.494,7.826-8.443,7.246-20.652,7.209
		c-4.408-0.012-9.154-3.27-11.688-7.098c-2.834-4.279-6.469-8.314-8.852-12.787c-5.525-10.375-19.232-9.34-25.225-19.137
		c-3.459-4.123-4.541-8.084-4.541-8.084l-3.215,0.26l-4.189,22.17c0,0-3.209,13.969,0.82,16.904
		c24.404,21.957,55.377,24.162,55.377,24.162c18.053,1.568,20.354-6.185,20.354-6.185c4.539-8.502,10.428-34.717,12.188-42.856
		C2162.742,425.051,2161.492,428.565,2160.834,432.424z"/>
	<path style="fill:#A0CC3A;" d="M2059.131,505.846c0,0,51.689,86.174,51.689,148.178c0,0,4.607,120.639-5.73,258.863
		c0,0-48.861,3.82-88.809-10.519l13.756-116.607c0,0,0.713-66.736-19.465-114.789l-32.721-117.094L2059.131,505.846z"/>
	<path style="fill:#A0CC3A;" d="M2169.965,505.029l60.359,27.803c0,0,16.646,8.328,13.465,30.795l-34.156,221.924l6.551,127.404
		c0,0-41.238,3.26-53.242,1.496c5.994-247.691,6.314-247.678,8.666-298.006C2171.607,616.445,2174.162,556.762,2169.965,505.029z"/>
	<g>
		<path style="fill:none;" d="M2111.441,678.309c0.324,17.535,0.588,43.701,0.236,75.574h55.244
			c0.912-35.16,1.57-58.346,2.129-75.574H2111.441z"/>
		<path style="fill:#FFFFFF;" d="M2110.82,654.023c0-5.584-0.43-11.369-1.193-17.267h-108.615l9.561,34.215
			c1.006,2.398,1.945,4.855,2.852,7.338h98.018C2111.158,662.799,2110.82,654.023,2110.82,654.023z"/>
		<path style="fill:#FFFFFF;" d="M2028.574,753.883c1.598,18.768,1.463,31.877,1.463,31.877l-1.141,9.674h82.004
			c0.387-14.664,0.633-28.58,0.777-41.551H2028.574z"/>
		<path style="fill:#FFFFFF;" d="M2226.139,678.309l6.395-41.553h-61.875c-0.551,11.982-1.027,23.516-1.607,41.553H2226.139z"/>
		<path style="fill:#FFFFFF;" d="M2214.508,753.883h-47.586c-0.32,12.295-0.672,26.065-1.061,41.551h44.281l-0.51-9.883
			L2214.508,753.883z"/>
	</g>
	<path style="fill:#D99275;" d="M2124.859,425.004c0,0,1.703-3.891,16.736-3.928c0,0,2.713-0.951,0.834-2.621
		c0,0-1.777-1.41-9.525-0.471c0,0-10.412,1.174-12.707,6.81c0,0-2.113,2.924,0.563,4.596
		C2120.76,429.391,2122.91,429.471,2124.859,425.004z"/>
	<path style="fill:#D99275;" d="M2160.736,421.914c-2.607-5.273-11.016-5.029-11.016-5.029c-5.758,0.033-6.805,1.643-6.805,1.643
		c-1.078,1.879,1.047,2.479,1.047,2.479c10.871-1.818,12.756,1.807,12.756,1.807s1.031,4.563,4.018,3.205
		C2160.736,426.018,2162.158,424.9,2160.736,421.914z"/>
	<g>
		<path style="fill:#FDBB35;" d="M2175.986,340.063c0.428-3.012,0.672-6.078,0.672-9.197c0-38.852-34.184-70.348-76.354-70.348
			s-76.355,31.496-76.355,70.348c0,3.119,0.244,6.186,0.67,9.197c0,0,0.162,30.346,104.457,27.588
			C2129.076,367.65,2207.088,362.344,2175.986,340.063z"/>
		<path style="fill:#FAA335;" d="M2175.986,340.063c0.428-3.012,0.672-6.078,0.672-9.197c0-5.758-0.768-11.346-2.184-16.703
			c-0.607,4.506-1.932,9.215-6.283,12.219c-4.428,3.063-9.9,4.848-15.738,4.6c-5.145-0.221-10.645-1.623-13.564-5.432
			c-3.377-4.406-4.191-9.842-4.822-14.938c-1.688-13.633-5.508-26.887-9.197-40.227c-1.479-2.352-2.811-4.746-3.857-7.234
			c-6.584-1.707-13.525-2.633-20.707-2.633c-4.383,0-8.672,0.359-12.852,1.014c5.273,6.299,8.385,13.983,10.236,21.522
			c1.727,7.041,2.645,14.189,3.297,21.35c0.58,6.383,1.639,13.027-0.357,19.318c-1.811,5.707-6.072,10.383-13.281,11.748
			c-7.729,1.467-16.127,0.256-23.271-2.475c-7.334-2.799-13.418-6.934-16.516-13.268c-3.357-6.875-3.551-14.434-1.189-21.559
			c4.055-12.219,13.195-23.25,24.232-32.129c-27.414,10.674-46.654,35.68-46.654,64.826c0,3.119,0.244,6.186,0.67,9.197
			c0,0,0.129,23.166,69.732,27.176c-1.43-1.158-2.48-2.537-2.881-4.223c-2.836-11.836,17.068-12.445,26.326-13.047
			c9.725-0.633,19.457-2.115,29.137-3.158c10.465-1.129,20.971-2.455,30.98-5.264
			C2177.32,341.059,2176.691,340.566,2175.986,340.063z"/>
		<g>
			<path style="fill:#CC782A;" d="M2044.047,343.586c0,0,2.057,0.326,5.672,0.711c1.807,0.188,3.973,0.543,6.5,0.711
				c2.52,0.195,5.361,0.416,8.449,0.728c3.084,0.348,6.461,0.369,10.01,0.586c3.553,0.111,7.285,0.484,11.168,0.463
				c3.877,0.051,7.885,0.104,11.951,0.158c4.07,0.154,8.203-0.104,12.33-0.297c4.133-0.125,8.264-0.248,12.332-0.373
				c4.072-0.086,8.039-0.701,11.904-1.012c3.854-0.404,7.594-0.688,11.141-0.975c3.564-0.18,6.871-0.795,9.939-1.281
				c6.125-1,11.275-1.648,14.871-2.191c3.607-0.479,5.672-0.752,5.672-0.752s-2.018,0.482-5.551,1.328
				c-3.547,0.783-8.602,2.025-14.723,3.295c-3.055,0.645-6.357,1.43-9.918,1.789c-3.547,0.467-7.291,0.98-11.176,1.4
				c-3.885,0.375-7.881,1.06-11.979,1.219c-4.102,0.19-8.264,0.381-12.428,0.574c-4.166,0.127-8.332,0.316-12.436,0.092
				c-4.098-0.121-8.135-0.24-12.041-0.355c-3.908,0.008-7.658-0.607-11.225-0.891c-3.559-0.395-6.936-0.586-10.023-1.092
				c-3.094-0.432-5.918-0.895-8.422-1.303c-2.506-0.373-4.666-0.912-6.453-1.246
				C2046.043,344.172,2044.047,343.586,2044.047,343.586z"/>
		</g>
		<g>
			<path style="fill:#FFD832;" d="M2131.289,346.631c9.959-55.307-10.514-84.352-10.514-84.352
				c-2.773-4.863-13.209-5.898-13.209-5.898h-12.15c-15.955,0.459-10.783,7.621-10.783,7.621s22.934,25.676,22.346,84.389
				L2131.289,346.631z"/>
			<g>
				<path style="fill:#CC782A;" d="M2083.264,262.279c0,0,1.031,1.002,2.629,2.941c1.537,1.978,3.842,4.771,6.074,8.471
					c1.191,1.807,2.27,3.883,3.527,6.023c1.094,2.219,2.424,4.49,3.432,7.004c1.088,2.479,2.205,5.049,3.094,7.752
					c1.018,2.66,1.783,5.449,2.596,8.225c0.844,2.768,1.279,5.637,1.928,8.404c0.598,2.783,0.822,5.586,1.23,8.26
					c0.379,2.678,0.367,5.31,0.529,7.779c0.197,2.469,0.037,4.814,0.021,6.973c-0.072,2.156-0.027,4.135-0.295,5.875
					c-0.205,1.738-0.381,3.254-0.529,4.502c-0.332,2.484-0.521,3.902-0.521,3.902s-0.023-1.432-0.066-3.941
					c0-1.246-0.004-2.762-0.008-4.498c0.047-1.733-0.236-3.688-0.287-5.815c-0.135-2.125-0.145-4.432-0.516-6.846
					c-0.338-2.414-0.537-4.971-0.971-7.586c-0.479-2.607-0.867-5.318-1.453-8.033c-0.668-2.697-1.127-5.492-1.982-8.186
					c-0.76-2.719-1.473-5.453-2.432-8.063c-0.857-2.645-1.795-5.215-2.787-7.674c-0.93-2.482-2.031-4.799-2.949-7.055
					c-1.078-2.18-1.99-4.305-3.033-6.158C2086.602,266.957,2083.264,262.279,2083.264,262.279z"/>
			</g>
			<g>
				<path style="fill:#CC782A;" d="M2120.775,262.279c0,0,0.875,1.045,2.162,3.064c1.244,2.035,2.963,5.004,4.598,8.779
					c0.732,1.914,1.648,3.955,2.361,6.201c0.805,2.217,1.527,4.598,2.145,7.096c0.693,2.48,1.146,5.102,1.693,7.748
					c0.379,2.672,0.811,5.385,1.102,8.109c0.162,2.736,0.467,5.469,0.5,8.166c0.029,2.693,0.08,5.352-0.023,7.912
					c-0.125,2.563-0.322,5.035-0.496,7.375c-0.299,2.326-0.582,4.525-0.842,6.559c-0.422,4.068-1.408,7.365-1.838,9.701
					c-0.537,2.316-0.848,3.641-0.848,3.641s0.098-1.357,0.266-3.732c0.188-2.369,0.574-5.73,0.727-9.783
					c0.102-2.02,0.213-4.207,0.332-6.522c-0.008-2.318-0.027-4.758,0.033-7.275c0.027-2.521-0.203-5.119-0.23-7.76
					c-0.066-2.641-0.404-5.307-0.59-7.98c-0.246-2.668-0.635-5.322-0.971-7.938c-0.525-2.582-0.801-5.178-1.4-7.617
					c-0.545-2.451-1.035-4.834-1.66-7.055c-0.529-2.252-1.266-4.305-1.844-6.24c-0.719-1.877-1.256-3.66-1.881-5.176
					c-0.574-1.545-1.17-2.848-1.646-3.932C2121.432,263.477,2120.775,262.279,2120.775,262.279z"/>
			</g>
		</g>
	</g>
</g>
</svg>
